Nobel-Book.ufo
<glyph name="exclam" format="1">
  <advance width="200"/>
  <unicode hex="0021"/>
  <outline>
    <contour>
      <point x="135" y="361" type="line"/>
      <point x="120" y="141" type="line"/>
      <point x="77" y="141" type="line"/>
      <point x="63" y="361" type="line"/>
      <point x="63" y="730" type="line"/>
      <point x="135" y="730" type="line"/>
    </contour>
    <contour>
      <point x="135" y="0" type="line"/>
      <point x="63" y="0" type="line"/>
      <point x="63" y="96" type="line"/>
      <point x="135" y="96" type="line"/>
    </contour>
  </outline>
</glyph>
<glyph name="quotedbl" format="1">
  <advance width="307"/>
  <unicode hex="0022"/>
  <outline>
    <contour>
      <point x="252" y="634" type="line"/>
      <point x="237" y="535" type="line"/>
      <point x="199" y="535" type="line"/>
      <point x="184" y="634" type="line"/>
      <point x="184" y="730" type="line"/>
      <point x="252" y="730" type="line"/>
    </contour>
    <contour>
      <point x="123" y="634" type="line"/>
      <point x="108" y="535" type="line"/>
      <point x="70" y="535" type="line"/>
      <point x="56" y="634" type="line"/>
      <point x="56" y="730" type="line"/>
      <point x="123" y="730" type="line"/>
    </contour>
  </outline>
</glyph>
<glyph name="numbersign" format="1">
  <advance width="599"/>
  <unicode hex="0023"/>
  <outline>
    <contour>
      <point x="563" y="218" type="line"/>
      <point x="428" y="218" type="line"/>
      <point x="409" y="0" type="line"/>
      <point x="344" y="0" type="line"/>
      <point x="363" y="218" type="line"/>
      <point x="211" y="218" type="line"/>
      <point x="192" y="0" type="line"/>
      <point x="127" y="0" type="line"/>
      <point x="146" y="218" type="line"/>
      <point x="37" y="218" type="line"/>
      <point x="37" y="272" type="line"/>
      <point x="151" y="272" type="line"/>
      <point x="167" y="461" type="line"/>
      <point x="37" y="461" type="line"/>
      <point x="37" y="515" type="line"/>
      <point x="172" y="515" type="line"/>
      <point x="191" y="730" type="line"/>
      <point x="256" y="730" type="line"/>
      <point x="237" y="515" type="line"/>
      <point x="388" y="515" type="line"/>
      <point x="408" y="730" type="line"/>
      <point x="473" y="730" type="line"/>
      <point x="454" y="515" type="line"/>
      <point x="563" y="515" type="line"/>
      <point x="563" y="461" type="line"/>
      <point x="449" y="461" type="line"/>
      <point x="433" y="272" type="line"/>
      <point x="563" y="272" type="line"/>
    </contour>
    <contour>
      <point x="384" y="461" type="line"/>
      <point x="232" y="461" type="line"/>
      <point x="216" y="272" type="line"/>
      <point x="367" y="272" type="line"/>
    </contour>
  </outline>
</glyph>
<glyph name="dollar" format="1">
  <advance width="523"/>
  <unicode hex="0024"/>
  <outline>
    <contour>
      <point x="489" y="191" type="curve" smooth="yes"/>
      <point x="489" y="81"/>
      <point x="403" y="10"/>
      <point x="285" y="1" type="curve"/>
      <point x="285" y="-73" type="line"/>
      <point x="229" y="-73" type="line"/>
      <point x="229" y="1" type="line"/>
      <point x="147" y="9"/>
      <point x="64" y="54"/>
      <point x="23" y="102" type="curve"/>
      <point x="67" y="146" type="line"/>
      <point x="103" y="109"/>
      <point x="166" y="73"/>
      <point x="229" y="66" type="curve"/>
      <point x="229" y="368" type="line"/>
      <point x="125" y="414"/>
      <point x="51" y="459"/>
      <point x="51" y="562" type="curve" smooth="yes"/>
      <point x="51" y="662"/>
      <point x="130" y="721"/>
      <point x="229" y="729" type="curve"/>
      <point x="229" y="786" type="line"/>
      <point x="285" y="786" type="line"/>
      <point x="285" y="729" type="line"/>
      <point x="356" y="724"/>
      <point x="414" y="697"/>
      <point x="455" y="661" type="curve"/>
      <point x="416" y="610" type="line"/>
      <point x="376" y="645"/>
      <point x="334" y="662"/>
      <point x="285" y="666" type="curve"/>
      <point x="285" y="667"/>
      <point x="285" y="417"/>
      <point x="285" y="417" type="curve"/>
      <point x="396" y="367"/>
      <point x="489" y="314"/>
    </contour>
    <contour>
      <point x="229" y="442" type="curve"/>
      <point x="229" y="667" type="line"/>
      <point x="165" y="660"/>
      <point x="121" y="625"/>
      <point x="121" y="564" type="curve" smooth="yes"/>
      <point x="121" y="505"/>
      <point x="155" y="476"/>
    </contour>
    <contour>
      <point x="418" y="188" type="curve" smooth="yes"/>
      <point x="418" y="267"/>
      <point x="370" y="303"/>
      <point x="285" y="344" type="curve"/>
      <point x="285" y="344"/>
      <point x="285" y="66"/>
      <point x="285" y="65" type="curve"/>
      <point x="366" y="74"/>
      <point x="418" y="117"/>
    </contour>
  </outline>
</glyph>
<glyph name="percent" format="1">
  <advance width="734"/>
  <unicode hex="0025"/>
  <outline>
    <contour>
      <point x="334" y="556" type="curve" smooth="yes"/>
      <point x="334" y="448"/>
      <point x="279" y="365"/>
      <point x="190" y="365" type="curve" smooth="yes"/>
      <point x="119" y="365"/>
      <point x="50" y="427"/>
      <point x="50" y="553" type="curve" smooth="yes"/>
      <point x="50" y="660"/>
      <point x="105" y="742"/>
      <point x="193" y="742" type="curve" smooth="yes"/>
      <point x="284" y="742"/>
      <point x="334" y="657"/>
    </contour>
    <contour>
      <point x="648" y="730" type="line"/>
      <point x="149" y="0" type="line"/>
      <point x="76" y="0" type="line"/>
      <point x="575" y="730" type="line"/>
    </contour>
    <contour>
      <point x="684" y="179" type="curve" smooth="yes"/>
      <point x="684" y="71"/>
      <point x="629" y="-12"/>
      <point x="540" y="-12" type="curve" smooth="yes"/>
      <point x="469" y="-12"/>
      <point x="400" y="50"/>
      <point x="400" y="176" type="curve" smooth="yes"/>
      <point x="400" y="283"/>
      <point x="455" y="365"/>
      <point x="543" y="365" type="curve" smooth="yes"/>
      <point x="634" y="365"/>
      <point x="684" y="280"/>
    </contour>
    <contour>
      <point x="271" y="553" type="curve" smooth="yes"/>
      <point x="271" y="621"/>
      <point x="246" y="687"/>
      <point x="193" y="687" type="curve" smooth="yes"/>
      <point x="139" y="687"/>
      <point x="112" y="625"/>
      <point x="112" y="553" type="curve" smooth="yes"/>
      <point x="112" y="482"/>
      <point x="137" y="420"/>
      <point x="190" y="420" type="curve" smooth="yes"/>
      <point x="247" y="420"/>
      <point x="271" y="483"/>
    </contour>
    <contour>
      <point x="622" y="176" type="curve" smooth="yes"/>
      <point x="622" y="244"/>
      <point x="596" y="310"/>
      <point x="543" y="310" type="curve" smooth="yes"/>
      <point x="490" y="310"/>
      <point x="463" y="248"/>
      <point x="463" y="176" type="curve" smooth="yes"/>
      <point x="463" y="105"/>
      <point x="487" y="43"/>
      <point x="540" y="43" type="curve" smooth="yes"/>
      <point x="597" y="43"/>
      <point x="622" y="106"/>
    </contour>
  </outline>
</glyph>
<glyph name="ampersand" format="1">
  <advance width="635"/>
  <unicode hex="0026"/>
  <outline>
    <contour>
      <point x="617" y="0" type="line"/>
      <point x="528" y="0" type="line"/>
      <point x="459" y="78" type="line"/>
      <point x="396" y="26"/>
      <point x="326" y="-12"/>
      <point x="237" y="-12" type="curve" smooth="yes"/>
      <point x="125" y="-12"/>
      <point x="35" y="71"/>
      <point x="35" y="178" type="curve" smooth="yes"/>
      <point x="35" y="276"/>
      <point x="107" y="352"/>
      <point x="180" y="402" type="curve"/>
      <point x="136" y="452" type="line" smooth="yes"/>
      <point x="103" y="490"/>
      <point x="76" y="534"/>
      <point x="76" y="585" type="curve" smooth="yes"/>
      <point x="76" y="672"/>
      <point x="153" y="742"/>
      <point x="241" y="742" type="curve" smooth="yes"/>
      <point x="339" y="742"/>
      <point x="405" y="674"/>
      <point x="405" y="586" type="curve" smooth="yes"/>
      <point x="405" y="502"/>
      <point x="335" y="441"/>
      <point x="271" y="393" type="curve"/>
      <point x="469" y="170" type="line"/>
      <point x="493" y="194"/>
      <point x="514" y="219"/>
      <point x="534" y="246" type="curve"/>
      <point x="581" y="202" type="line"/>
      <point x="559" y="175"/>
      <point x="535" y="147"/>
      <point x="509" y="122" type="curve"/>
    </contour>
    <contour>
      <point x="338" y="583" type="curve" smooth="yes"/>
      <point x="338" y="642"/>
      <point x="301" y="682"/>
      <point x="242" y="682" type="curve" smooth="yes"/>
      <point x="190" y="682"/>
      <point x="145" y="643"/>
      <point x="145" y="587" type="curve" smooth="yes"/>
      <point x="145" y="548"/>
      <point x="159" y="520"/>
      <point x="193" y="482" type="curve" smooth="yes"/>
      <point x="232" y="438" type="line"/>
      <point x="278" y="470"/>
      <point x="338" y="521"/>
    </contour>
    <contour>
      <point x="421" y="125" type="curve"/>
      <point x="220" y="355" type="line"/>
      <point x="161" y="312"/>
      <point x="105" y="257"/>
      <point x="105" y="184" type="curve" smooth="yes"/>
      <point x="105" y="110"/>
      <point x="161" y="50"/>
      <point x="237" y="50" type="curve" smooth="yes"/>
      <point x="309" y="50"/>
      <point x="370" y="81"/>
    </contour>
  </outline>
</glyph>
<glyph name="quotesingle" format="1">
  <advance width="178"/>
  <unicode hex="0027"/>
  <outline>
    <contour>
      <point x="123" y="634" type="line"/>
      <point x="108" y="535" type="line"/>
      <point x="70" y="535" type="line"/>
      <point x="56" y="634" type="line"/>
      <point x="56" y="730" type="line"/>
      <point x="123" y="730" type="line"/>
    </contour>
  </outline>
</glyph>
<glyph name="parenleft" format="1">
  <advance width="290"/>
  <unicode hex="0028"/>
  <outline>
    <contour>
      <point x="277" y="-188" type="line"/>
      <point x="140" y="-88"/>
      <point x="37" y="84"/>
      <point x="37" y="291" type="curve" smooth="yes"/>
      <point x="37" y="484"/>
      <point x="134" y="657"/>
      <point x="277" y="762" type="curve"/>
      <point x="277" y="711" type="line"/>
      <point x="172" y="609"/>
      <point x="109" y="460"/>
      <point x="109" y="291" type="curve" smooth="yes"/>
      <point x="108" y="119"/>
      <point x="170" y="-33"/>
      <point x="277" y="-136" type="curve"/>
    </contour>
  </outline>
</glyph>
<glyph name="parenright" format="1">
  <advance width="290"/>
  <unicode hex="0029"/>
  <outline>
    <contour>
      <point x="254" y="291" type="curve" smooth="yes"/>
      <point x="254" y="84"/>
      <point x="151" y="-88"/>
      <point x="14" y="-188" type="curve"/>
      <point x="14" y="-136" type="line"/>
      <point x="120" y="-33"/>
      <point x="182" y="119"/>
      <point x="181" y="291" type="curve" smooth="yes"/>
      <point x="181" y="460"/>
      <point x="118" y="609"/>
      <point x="14" y="711" type="curve"/>
      <point x="14" y="762" type="line"/>
      <point x="156" y="657"/>
      <point x="254" y="484"/>
    </contour>
  </outline>
</glyph>
<glyph name="asterisk" format="1">
  <advance width="393"/>
  <unicode hex="002A"/>
  <outline>
    <contour>
      <point x="351" y="602" type="line"/>
      <point x="235" y="561" type="line"/>
      <point x="305" y="461" type="line"/>
      <point x="270" y="435" type="line"/>
      <point x="196" y="533" type="line"/>
      <point x="122" y="436" type="line"/>
      <point x="86" y="460" type="line"/>
      <point x="157" y="562" type="line"/>
      <point x="41" y="601" type="line"/>
      <point x="55" y="643" type="line"/>
      <point x="172" y="607" type="line"/>
      <point x="174" y="730" type="line"/>
      <point x="217" y="730" type="line"/>
      <point x="218" y="607" type="line"/>
      <point x="337" y="643" type="line"/>
    </contour>
  </outline>
</glyph>
<glyph name="plus" format="1">
  <advance width="502"/>
  <unicode hex="002B"/>
  <outline>
    <contour>
      <point x="467" y="300" type="line"/>
      <point x="283" y="300" type="line"/>
      <point x="283" y="125" type="line"/>
      <point x="219" y="125" type="line"/>
      <point x="219" y="300" type="line"/>
      <point x="35" y="300" type="line"/>
      <point x="35" y="361" type="line"/>
      <point x="219" y="361" type="line"/>
      <point x="219" y="537" type="line"/>
      <point x="283" y="537" type="line"/>
      <point x="283" y="361" type="line"/>
      <point x="467" y="361" type="line"/>
    </contour>
  </outline>
</glyph>
<glyph name="comma" format="1">
  <advance width="178"/>
  <unicode hex="002C"/>
  <outline>
    <contour>
      <point x="125" y="15" type="line" smooth="yes"/>
      <point x="125" y="-54"/>
      <point x="89" y="-115"/>
      <point x="62" y="-147" type="curve"/>
      <point x="20" y="-147" type="line"/>
      <point x="41" y="-112"/>
      <point x="53" y="-65"/>
      <point x="53" y="-8" type="curve" smooth="yes"/>
      <point x="53" y="96" type="line"/>
      <point x="125" y="96" type="line"/>
    </contour>
  </outline>
</glyph>
<glyph name="hyphen" format="1">
  <advance width="317"/>
  <unicode hex="002D"/>
  <unicode hex="2010"/>
  <unicode hex="2011"/>
  <outline>
    <contour>
      <point x="264" y="189" type="line"/>
      <point x="53" y="189" type="line"/>
      <point x="53" y="250" type="line"/>
      <point x="264" y="250" type="line"/>
    </contour>
  </outline>
</glyph>
<glyph name="period" format="1">
  <advance width="178"/>
  <unicode hex="002E"/>
  <outline>
    <contour>
      <point x="125" y="0" type="line"/>
      <point x="53" y="0" type="line"/>
      <point x="53" y="96" type="line"/>
      <point x="125" y="96" type="line"/>
    </contour>
  </outline>
</glyph>
<glyph name="slash" format="1">
  <advance width="378"/>
  <unicode hex="002F"/>
  <outline>
    <contour>
      <point x="350" y="730" type="line"/>
      <point x="96" y="0" type="line"/>
      <point x="28" y="0" type="line"/>
      <point x="283" y="730" type="line"/>
    </contour>
  </outline>
</glyph>
<glyph name="zero" format="1">
  <advance width="605"/>
  <unicode hex="0030"/>
  <outline>
    <contour>
      <point x="565" y="371" type="curve" smooth="yes"/>
      <point x="565" y="157"/>
      <point x="481" y="-12"/>
      <point x="299" y="-12" type="curve" smooth="yes"/>
      <point x="138" y="-12"/>
      <point x="39" y="143"/>
      <point x="39" y="360" type="curve" smooth="yes"/>
      <point x="39" y="573"/>
      <point x="124" y="742"/>
      <point x="304" y="742" type="curve" smooth="yes"/>
      <point x="483" y="742"/>
      <point x="565" y="565"/>
    </contour>
    <contour>
      <point x="492" y="365" type="curve" smooth="yes"/>
      <point x="492" y="512"/>
      <point x="442" y="677"/>
      <point x="303" y="677" type="curve" smooth="yes"/>
      <point x="168" y="677"/>
      <point x="113" y="525"/>
      <point x="113" y="364" type="curve" smooth="yes"/>
      <point x="113" y="215"/>
      <point x="170" y="53"/>
      <point x="300" y="53" type="curve" smooth="yes"/>
      <point x="440" y="53"/>
      <point x="492" y="206"/>
    </contour>
  </outline>
</glyph>
<glyph name="one" format="1">
  <advance width="296"/>
  <unicode hex="0031"/>
  <outline>
    <contour>
      <point x="225" y="0" type="line"/>
      <point x="156" y="0" type="line"/>
      <point x="156" y="613" type="line"/>
      <point x="130" y="582"/>
      <point x="67" y="550"/>
      <point x="18" y="544" type="curve"/>
      <point x="18" y="608" type="line"/>
      <point x="75" y="616"/>
      <point x="146" y="666"/>
      <point x="174" y="730" type="curve"/>
      <point x="225" y="730" type="line"/>
    </contour>
  </outline>
</glyph>
<glyph name="two" format="1">
  <advance width="546"/>
  <unicode hex="0032"/>
  <outline>
    <contour>
      <point x="499" y="0" type="line"/>
      <point x="33" y="0" type="line"/>
      <point x="352" y="390" type="line" smooth="yes"/>
      <point x="398" y="446"/>
      <point x="416" y="485"/>
      <point x="416" y="528" type="curve" smooth="yes"/>
      <point x="416" y="624"/>
      <point x="340" y="676"/>
      <point x="265" y="676" type="curve" smooth="yes"/>
      <point x="170" y="676"/>
      <point x="115" y="613"/>
      <point x="108" y="530" type="curve"/>
      <point x="39" y="530" type="line"/>
      <point x="47" y="662"/>
      <point x="144" y="742"/>
      <point x="264" y="742" type="curve" smooth="yes"/>
      <point x="383" y="742"/>
      <point x="488" y="665"/>
      <point x="488" y="530" type="curve" smooth="yes"/>
      <point x="488" y="468"/>
      <point x="458" y="411"/>
      <point x="409" y="353" type="curve" smooth="yes"/>
      <point x="171" y="67" type="line"/>
      <point x="499" y="67" type="line"/>
    </contour>
  </outline>
</glyph>
<glyph name="three" format="1">
  <advance width="570"/>
  <unicode hex="0033"/>
  <outline>
    <contour>
      <point x="524" y="211" type="curve" smooth="yes"/>
      <point x="524" y="95"/>
      <point x="450" y="-12"/>
      <point x="273" y="-12" type="curve" smooth="yes"/>
      <point x="162" y="-12"/>
      <point x="70" y="32"/>
      <point x="20" y="87" type="curve"/>
      <point x="64" y="137" type="line"/>
      <point x="115" y="85"/>
      <point x="187" y="51"/>
      <point x="273" y="51" type="curve" smooth="yes"/>
      <point x="386" y="51"/>
      <point x="454" y="117"/>
      <point x="454" y="208" type="curve" smooth="yes"/>
      <point x="454" y="310"/>
      <point x="380" y="361"/>
      <point x="269" y="361" type="curve" smooth="yes"/>
      <point x="197" y="361" type="line"/>
      <point x="197" y="423" type="line"/>
      <point x="268" y="423" type="line" smooth="yes"/>
      <point x="363" y="423"/>
      <point x="428" y="472"/>
      <point x="428" y="555" type="curve" smooth="yes"/>
      <point x="428" y="615"/>
      <point x="379" y="678"/>
      <point x="282" y="678" type="curve" smooth="yes"/>
      <point x="199" y="678"/>
      <point x="142" y="633"/>
      <point x="111" y="585" type="curve"/>
      <point x="54" y="618" type="line"/>
      <point x="94" y="682"/>
      <point x="167" y="742"/>
      <point x="284" y="742" type="curve" smooth="yes"/>
      <point x="432" y="742"/>
      <point x="498" y="646"/>
      <point x="498" y="557" type="curve" smooth="yes"/>
      <point x="498" y="479"/>
      <point x="453" y="422"/>
      <point x="390" y="395" type="curve"/>
      <point x="468" y="369"/>
      <point x="524" y="305"/>
    </contour>
  </outline>
</glyph>
<glyph name="four" format="1">
  <advance width="554"/>
  <unicode hex="0034"/>
  <outline>
    <contour>
      <point x="535" y="185" type="line"/>
      <point x="424" y="185" type="line"/>
      <point x="424" y="0" type="line"/>
      <point x="357" y="0" type="line"/>
      <point x="357" y="185" type="line"/>
      <point x="22" y="185" type="line"/>
      <point x="22" y="234" type="line"/>
      <point x="375" y="730" type="line"/>
      <point x="424" y="730" type="line"/>
      <point x="424" y="247" type="line"/>
      <point x="535" y="247" type="line"/>
    </contour>
    <contour>
      <point x="357" y="247" type="line"/>
      <point x="357" y="601" type="line"/>
      <point x="108" y="247" type="line"/>
    </contour>
  </outline>
</glyph>
<glyph name="five" format="1">
  <advance width="580"/>
  <unicode hex="0035"/>
  <outline>
    <contour>
      <point x="531" y="252" type="curve" smooth="yes"/>
      <point x="531" y="99"/>
      <point x="430" y="-12"/>
      <point x="274" y="-12" type="curve" smooth="yes"/>
      <point x="183" y="-12"/>
      <point x="93" y="31"/>
      <point x="43" y="81" type="curve"/>
      <point x="84" y="132" type="line"/>
      <point x="130" y="89"/>
      <point x="198" y="53"/>
      <point x="275" y="53" type="curve" smooth="yes"/>
      <point x="394" y="53"/>
      <point x="458" y="146"/>
      <point x="458" y="246" type="curve" smooth="yes"/>
      <point x="458" y="365"/>
      <point x="386" y="437"/>
      <point x="286" y="437" type="curve" smooth="yes"/>
      <point x="215" y="437"/>
      <point x="162" y="400"/>
      <point x="131" y="340" type="curve"/>
      <point x="77" y="355" type="line"/>
      <point x="103" y="730" type="line"/>
      <point x="482" y="730" type="line"/>
      <point x="482" y="668" type="line"/>
      <point x="165" y="668" type="line"/>
      <point x="150" y="445" type="line"/>
      <point x="183" y="477"/>
      <point x="228" y="501"/>
      <point x="296" y="501" type="curve" smooth="yes"/>
      <point x="434" y="501"/>
      <point x="531" y="398"/>
    </contour>
  </outline>
</glyph>
<glyph name="six" format="1">
  <advance width="559"/>
  <unicode hex="0036"/>
  <outline>
    <contour>
      <point x="523" y="237" type="curve" smooth="yes"/>
      <point x="523" y="93"/>
      <point x="421" y="-12"/>
      <point x="280" y="-12" type="curve" smooth="yes"/>
      <point x="145" y="-12"/>
      <point x="42" y="80"/>
      <point x="42" y="234" type="curve" smooth="yes"/>
      <point x="42" y="417"/>
      <point x="143" y="572"/>
      <point x="271" y="730" type="curve"/>
      <point x="352" y="730" type="line"/>
      <point x="273" y="646"/>
      <point x="171" y="490"/>
      <point x="142" y="410" type="curve"/>
      <point x="175" y="450"/>
      <point x="233" y="476"/>
      <point x="290" y="476" type="curve" smooth="yes"/>
      <point x="431" y="476"/>
      <point x="523" y="373"/>
    </contour>
    <contour>
      <point x="453" y="235" type="curve" smooth="yes"/>
      <point x="453" y="348"/>
      <point x="382" y="414"/>
      <point x="284" y="414" type="curve" smooth="yes"/>
      <point x="189" y="414"/>
      <point x="113" y="335"/>
      <point x="113" y="236" type="curve" smooth="yes"/>
      <point x="113" y="119"/>
      <point x="186" y="51"/>
      <point x="283" y="51" type="curve" smooth="yes"/>
      <point x="384" y="51"/>
      <point x="453" y="132"/>
    </contour>
  </outline>
</glyph>
<glyph name="seven" format="1">
  <advance width="516"/>
  <unicode hex="0037"/>
  <outline>
    <contour>
      <point x="492" y="730" type="line"/>
      <point x="149" y="0" type="line"/>
      <point x="71" y="0" type="line"/>
      <point x="389" y="666" type="line"/>
      <point x="49" y="666" type="line"/>
      <point x="49" y="730" type="line"/>
    </contour>
  </outline>
</glyph>
<glyph name="eight" format="1">
  <advance width="608"/>
  <unicode hex="0038"/>
  <outline>
    <contour>
      <point x="567" y="204" type="curve" smooth="yes"/>
      <point x="567" y="71"/>
      <point x="457" y="-12"/>
      <point x="305" y="-12" type="curve" smooth="yes"/>
      <point x="154" y="-12"/>
      <point x="44" y="69"/>
      <point x="44" y="204" type="curve" smooth="yes"/>
      <point x="44" y="297"/>
      <point x="108" y="367"/>
      <point x="181" y="389" type="curve"/>
      <point x="127" y="411"/>
      <point x="76" y="467"/>
      <point x="76" y="545" type="curve" smooth="yes"/>
      <point x="76" y="670"/>
      <point x="178" y="742"/>
      <point x="305" y="742" type="curve" smooth="yes"/>
      <point x="438" y="742"/>
      <point x="534" y="665"/>
      <point x="534" y="548" type="curve" smooth="yes"/>
      <point x="534" y="471"/>
      <point x="484" y="411"/>
      <point x="428" y="389" type="curve"/>
      <point x="503" y="367"/>
      <point x="567" y="304"/>
    </contour>
    <contour>
      <point x="462" y="545" type="curve" smooth="yes"/>
      <point x="462" y="629"/>
      <point x="400" y="680"/>
      <point x="305" y="680" type="curve" smooth="yes"/>
      <point x="216" y="680"/>
      <point x="148" y="631"/>
      <point x="148" y="547" type="curve" smooth="yes"/>
      <point x="148" y="464"/>
      <point x="213" y="414"/>
      <point x="305" y="414" type="curve" smooth="yes"/>
      <point x="402" y="414"/>
      <point x="462" y="465"/>
    </contour>
    <contour>
      <point x="495" y="201" type="curve" smooth="yes"/>
      <point x="495" y="294"/>
      <point x="425" y="351"/>
      <point x="305" y="351" type="curve" smooth="yes"/>
      <point x="195" y="351"/>
      <point x="116" y="299"/>
      <point x="116" y="206" type="curve" smooth="yes"/>
      <point x="116" y="102"/>
      <point x="208" y="52"/>
      <point x="305" y="52" type="curve" smooth="yes"/>
      <point x="403" y="52"/>
      <point x="495" y="103"/>
    </contour>
  </outline>
</glyph>
<glyph name="nine" format="1">
  <advance width="569"/>
  <unicode hex="0039"/>
  <outline>
    <contour>
      <point x="524" y="492" type="curve" smooth="yes"/>
      <point x="524" y="302"/>
      <point x="412" y="143"/>
      <point x="283" y="-19" type="curve"/>
      <point x="226" y="24" type="line"/>
      <point x="291" y="92"/>
      <point x="395" y="245"/>
      <point x="417" y="300" type="curve"/>
      <point x="378" y="260"/>
      <point x="326" y="241"/>
      <point x="269" y="241" type="curve" smooth="yes"/>
      <point x="136" y="241"/>
      <point x="34" y="345"/>
      <point x="34" y="488" type="curve" smooth="yes"/>
      <point x="34" y="638"/>
      <point x="139" y="742"/>
      <point x="277" y="742" type="curve" smooth="yes"/>
      <point x="419" y="742"/>
      <point x="524" y="641"/>
    </contour>
    <contour>
      <point x="451" y="488" type="curve" smooth="yes"/>
      <point x="451" y="609"/>
      <point x="379" y="677"/>
      <point x="277" y="677" type="curve" smooth="yes"/>
      <point x="174" y="677"/>
      <point x="107" y="595"/>
      <point x="107" y="490" type="curve" smooth="yes"/>
      <point x="107" y="382"/>
      <point x="174" y="305"/>
      <point x="278" y="305" type="curve" smooth="yes"/>
      <point x="379" y="305"/>
      <point x="451" y="374"/>
    </contour>
  </outline>
</glyph>
<glyph name="colon" format="1">
  <advance width="178"/>
  <unicode hex="003A"/>
  <outline>
    <contour>
      <point x="125" y="331" type="line"/>
      <point x="53" y="331" type="line"/>
      <point x="53" y="426" type="line"/>
      <point x="125" y="426" type="line"/>
    </contour>
    <contour>
      <point x="125" y="0" type="line"/>
      <point x="53" y="0" type="line"/>
      <point x="53" y="96" type="line"/>
      <point x="125" y="96" type="line"/>
    </contour>
  </outline>
</glyph>
<glyph name="less" format="1">
  <advance width="359"/>
  <unicode hex="003C"/>
  <outline>
    <contour>
      <point x="309" y="102" type="line"/>
      <point x="38" y="296" type="line"/>
      <point x="38" y="353" type="line"/>
      <point x="309" y="545" type="line"/>
      <point x="309" y="470" type="line"/>
      <point x="97" y="325" type="line"/>
      <point x="309" y="179" type="line"/>
    </contour>
  </outline>
</glyph>
<glyph name="equal" format="1">
  <advance width="500"/>
  <unicode hex="003D"/>
  <outline>
    <contour>
      <point x="435" y="388" type="line"/>
      <point x="65" y="388" type="line"/>
      <point x="65" y="449" type="line"/>
      <point x="435" y="449" type="line"/>
    </contour>
    <contour>
      <point x="435" y="217" type="line"/>
      <point x="65" y="217" type="line"/>
      <point x="65" y="278" type="line"/>
      <point x="435" y="278" type="line"/>
    </contour>
  </outline>
</glyph>
<glyph name="greater" format="1">
  <advance width="359"/>
  <unicode hex="003E"/>
  <outline>
    <contour>
      <point x="321" y="295" type="line"/>
      <point x="50" y="102" type="line"/>
      <point x="50" y="178" type="line"/>
      <point x="262" y="323" type="line"/>
      <point x="50" y="469" type="line"/>
      <point x="50" y="545" type="line"/>
      <point x="321" y="352" type="line"/>
    </contour>
  </outline>
</glyph>
<glyph name="question" format="1">
  <advance width="439"/>
  <unicode hex="003F"/>
  <outline>
    <contour>
      <point x="401" y="558" type="curve" smooth="yes"/>
      <point x="401" y="473"/>
      <point x="352" y="415"/>
      <point x="307" y="353" type="curve" smooth="yes"/>
      <point x="268" y="299"/>
      <point x="233" y="237"/>
      <point x="233" y="168" type="curve" smooth="yes"/>
      <point x="233" y="144" type="line"/>
      <point x="164" y="144" type="line"/>
      <point x="164" y="166" type="line" smooth="yes"/>
      <point x="164" y="260"/>
      <point x="212" y="328"/>
      <point x="256" y="390" type="curve" smooth="yes"/>
      <point x="295" y="445"/>
      <point x="330" y="492"/>
      <point x="330" y="552" type="curve" smooth="yes"/>
      <point x="330" y="622"/>
      <point x="280" y="680"/>
      <point x="208" y="680" type="curve" smooth="yes"/>
      <point x="150" y="680"/>
      <point x="104" y="649"/>
      <point x="74" y="600" type="curve"/>
      <point x="25" y="644" type="line"/>
      <point x="69" y="710"/>
      <point x="131" y="742"/>
      <point x="208" y="742" type="curve" smooth="yes"/>
      <point x="325" y="742"/>
      <point x="401" y="663"/>
    </contour>
    <contour>
      <point x="234" y="0" type="line"/>
      <point x="163" y="0" type="line"/>
      <point x="163" y="96" type="line"/>
      <point x="234" y="96" type="line"/>
    </contour>
  </outline>
</glyph>
<glyph name="B" format="1">
  <advance width="573"/>
  <unicode hex="0042"/>
  <outline>
    <contour>
      <point x="531" y="200" type="curve" smooth="yes"/>
      <point x="531" y="78"/>
      <point x="436" y="0"/>
      <point x="291" y="0" type="curve" smooth="yes"/>
      <point x="78" y="0" type="line"/>
      <point x="78" y="730" type="line"/>
      <point x="258" y="730" type="line" smooth="yes"/>
      <point x="387" y="730"/>
      <point x="479" y="663"/>
      <point x="479" y="547" type="curve" smooth="yes"/>
      <point x="479" y="464"/>
      <point x="435" y="407"/>
      <point x="372" y="380" type="curve"/>
      <point x="435" y="370"/>
      <point x="531" y="314"/>
    </contour>
    <contour>
      <point x="407" y="543" type="curve" smooth="yes"/>
      <point x="407" y="623"/>
      <point x="350" y="666"/>
      <point x="250" y="666" type="curve" smooth="yes"/>
      <point x="147" y="666" type="line"/>
      <point x="147" y="404" type="line"/>
      <point x="251" y="404" type="line" smooth="yes"/>
      <point x="348" y="404"/>
      <point x="407" y="460"/>
    </contour>
    <contour>
      <point x="458" y="204" type="curve" smooth="yes"/>
      <point x="458" y="296"/>
      <point x="373" y="340"/>
      <point x="285" y="340" type="curve" smooth="yes"/>
      <point x="147" y="340" type="line"/>
      <point x="147" y="64" type="line"/>
      <point x="286" y="64" type="line" smooth="yes"/>
      <point x="385" y="64"/>
      <point x="458" y="108"/>
    </contour>
  </outline>
</glyph>
<glyph name="C" format="1">
  <advance width="721"/>
  <unicode hex="0043"/>
  <outline>
    <contour>
      <point x="681" y="121" type="line"/>
      <point x="627" y="53"/>
      <point x="532" y="-12"/>
      <point x="400" y="-12" type="curve" smooth="yes"/>
      <point x="212" y="-12"/>
      <point x="45" y="143"/>
      <point x="45" y="365" type="curve" smooth="yes"/>
      <point x="45" y="569"/>
      <point x="198" y="742"/>
      <point x="402" y="742" type="curve" smooth="yes"/>
      <point x="521" y="742"/>
      <point x="609" y="698"/>
      <point x="667" y="627" type="curve"/>
      <point x="616" y="582" type="line"/>
      <point x="563" y="640"/>
      <point x="492" y="675"/>
      <point x="402" y="675" type="curve" smooth="yes"/>
      <point x="240" y="675"/>
      <point x="118" y="538"/>
      <point x="118" y="368" type="curve" smooth="yes"/>
      <point x="118" y="178"/>
      <point x="255" y="55"/>
      <point x="402" y="55" type="curve" smooth="yes"/>
      <point x="495" y="55"/>
      <point x="568" y="93"/>
      <point x="631" y="163" type="curve"/>
    </contour>
  </outline>
</glyph>
<glyph name="D" format="1">
  <advance width="673"/>
  <unicode hex="0044"/>
  <outline>
    <contour>
      <point x="628" y="370" type="curve" smooth="yes"/>
      <point x="628" y="150"/>
      <point x="469" y="0"/>
      <point x="240" y="0" type="curve" smooth="yes"/>
      <point x="78" y="0" type="line"/>
      <point x="78" y="730" type="line"/>
      <point x="244" y="730" type="line" smooth="yes"/>
      <point x="471" y="730"/>
      <point x="628" y="588"/>
    </contour>
    <contour>
      <point x="555" y="369" type="curve" smooth="yes"/>
      <point x="555" y="546"/>
      <point x="428" y="668"/>
      <point x="250" y="668" type="curve" smooth="yes"/>
      <point x="147" y="668" type="line"/>
      <point x="147" y="62" type="line"/>
      <point x="241" y="62" type="line" smooth="yes"/>
      <point x="438" y="62"/>
      <point x="555" y="198"/>
    </contour>
  </outline>
</glyph>
<glyph name="E" format="1">
  <advance width="534"/>
  <unicode hex="0045"/>
  <outline>
    <contour>
      <point x="483" y="0" type="line"/>
      <point x="78" y="0" type="line"/>
      <point x="78" y="730" type="line"/>
      <point x="464" y="730" type="line"/>
      <point x="464" y="666" type="line"/>
      <point x="147" y="666" type="line"/>
      <point x="147" y="404" type="line"/>
      <point x="444" y="404" type="line"/>
      <point x="444" y="340" type="line"/>
      <point x="147" y="340" type="line"/>
      <point x="147" y="64" type="line"/>
      <point x="483" y="64" type="line"/>
    </contour>
  </outline>
</glyph>
<glyph name="F" format="1">
  <advance width="463"/>
  <unicode hex="0046"/>
  <outline>
    <contour>
      <point x="419" y="666" type="line"/>
      <point x="147" y="666" type="line"/>
      <point x="147" y="402" type="line"/>
      <point x="397" y="402" type="line"/>
      <point x="397" y="338" type="line"/>
      <point x="147" y="338" type="line"/>
      <point x="147" y="0" type="line"/>
      <point x="78" y="0" type="line"/>
      <point x="78" y="730" type="line"/>
      <point x="419" y="730" type="line"/>
    </contour>
  </outline>
</glyph>
<glyph name="G" format="1">
  <advance width="796"/>
  <unicode hex="0047"/>
  <outline>
    <contour>
      <point x="761" y="309" type="line"/>
      <point x="756" y="130"/>
      <point x="604" y="-12"/>
      <point x="423" y="-12" type="curve" smooth="yes"/>
      <point x="221" y="-12"/>
      <point x="45" y="140"/>
      <point x="45" y="364" type="curve" smooth="yes"/>
      <point x="45" y="583"/>
      <point x="216" y="742"/>
      <point x="423" y="742" type="curve" smooth="yes"/>
      <point x="538" y="742"/>
      <point x="624" y="702"/>
      <point x="691" y="635" type="curve"/>
      <point x="647" y="584" type="line"/>
      <point x="579" y="650"/>
      <point x="514" y="675"/>
      <point x="421" y="675" type="curve" smooth="yes"/>
      <point x="251" y="675"/>
      <point x="118" y="544"/>
      <point x="118" y="363" type="curve" smooth="yes"/>
      <point x="118" y="186"/>
      <point x="252" y="55"/>
      <point x="424" y="55" type="curve" smooth="yes"/>
      <point x="549" y="55"/>
      <point x="655" y="133"/>
      <point x="681" y="244" type="curve"/>
      <point x="439" y="244" type="line"/>
      <point x="439" y="309" type="line"/>
    </contour>
  </outline>
</glyph>
<glyph name="H" format="1">
  <advance width="686"/>
  <unicode hex="0048"/>
  <outline>
    <contour>
      <point x="608" y="0" type="line"/>
      <point x="538" y="0" type="line"/>
      <point x="538" y="340" type="line"/>
      <point x="147" y="340" type="line"/>
      <point x="147" y="0" type="line"/>
      <point x="78" y="0" type="line"/>
      <point x="78" y="730" type="line"/>
      <point x="147" y="730" type="line"/>
      <point x="147" y="405" type="line"/>
      <point x="538" y="405" type="line"/>
      <point x="538" y="730" type="line"/>
      <point x="608" y="730" type="line"/>
    </contour>
  </outline>
</glyph>
<glyph name="I" format="1">
  <advance width="225"/>
  <unicode hex="0049"/>
  <outline>
    <contour>
      <point x="147" y="0" type="line"/>
      <point x="78" y="0" type="line"/>
      <point x="78" y="730" type="line"/>
      <point x="147" y="730" type="line"/>
    </contour>
  </outline>
</glyph>
<glyph name="J" format="1">
  <advance width="350"/>
  <unicode hex="004A"/>
  <outline>
    <contour>
      <point x="277" y="194" type="line" smooth="yes"/>
      <point x="277" y="75"/>
      <point x="197" y="-9"/>
      <point x="87" y="-9" type="curve" smooth="yes"/>
      <point x="76" y="-9"/>
      <point x="42" y="-9"/>
      <point x="28" y="-5" type="curve"/>
      <point x="28" y="58" type="line"/>
      <point x="38" y="56"/>
      <point x="78" y="56"/>
      <point x="87" y="56" type="curve" smooth="yes"/>
      <point x="158" y="56"/>
      <point x="208" y="115"/>
      <point x="208" y="192" type="curve" smooth="yes"/>
      <point x="208" y="730" type="line"/>
      <point x="277" y="730" type="line"/>
    </contour>
  </outline>
</glyph>
<glyph name="K" format="1">
  <advance width="593"/>
  <unicode hex="004B"/>
  <outline>
    <contour>
      <point x="571" y="0" type="line"/>
      <point x="483" y="0" type="line"/>
      <point x="190" y="363" type="line"/>
      <point x="147" y="318" type="line"/>
      <point x="147" y="0" type="line"/>
      <point x="78" y="0" type="line"/>
      <point x="78" y="730" type="line"/>
      <point x="147" y="730" type="line"/>
      <point x="147" y="408" type="line"/>
      <point x="446" y="730" type="line"/>
      <point x="534" y="730" type="line"/>
      <point x="237" y="413" type="line"/>
    </contour>
  </outline>
</glyph>
<glyph name="L" format="1">
  <advance width="482"/>
  <unicode hex="004C"/>
  <outline>
    <contour>
      <point x="455" y="0" type="line"/>
      <point x="78" y="0" type="line"/>
      <point x="78" y="730" type="line"/>
      <point x="147" y="730" type="line"/>
      <point x="147" y="64" type="line"/>
      <point x="455" y="64" type="line"/>
    </contour>
  </outline>
</glyph>
<glyph name="M" format="1">
  <advance width="818"/>
  <unicode hex="004D"/>
  <outline>
    <contour>
      <point x="740" y="0" type="line"/>
      <point x="671" y="0" type="line"/>
      <point x="671" y="615" type="line"/>
      <point x="426" y="260" type="line"/>
      <point x="392" y="260" type="line"/>
      <point x="147" y="613" type="line"/>
      <point x="147" y="0" type="line"/>
      <point x="78" y="0" type="line"/>
      <point x="78" y="730" type="line"/>
      <point x="146" y="730" type="line"/>
      <point x="410" y="350" type="line"/>
      <point x="670" y="730" type="line"/>
      <point x="740" y="730" type="line"/>
    </contour>
  </outline>
</glyph>
<glyph name="N" format="1">
  <advance width="727"/>
  <unicode hex="004E"/>
  <outline>
    <contour>
      <point x="649" y="0" type="line"/>
      <point x="584" y="0" type="line"/>
      <point x="147" y="612" type="line"/>
      <point x="147" y="0" type="line"/>
      <point x="78" y="0" type="line"/>
      <point x="78" y="730" type="line"/>
      <point x="147" y="730" type="line"/>
      <point x="579" y="123" type="line"/>
      <point x="579" y="730" type="line"/>
      <point x="649" y="730" type="line"/>
    </contour>
  </outline>
</glyph>
<glyph name="O" format="1">
  <advance width="823"/>
  <unicode hex="004F"/>
  <outline>
    <contour>
      <point x="778" y="366" type="curve" smooth="yes"/>
      <point x="778" y="153"/>
      <point x="616" y="-12"/>
      <point x="412" y="-12" type="curve" smooth="yes"/>
      <point x="207" y="-12"/>
      <point x="45" y="150"/>
      <point x="45" y="366" type="curve" smooth="yes"/>
      <point x="45" y="579"/>
      <point x="204" y="742"/>
      <point x="410" y="742" type="curve" smooth="yes"/>
      <point x="623" y="742"/>
      <point x="778" y="578"/>
    </contour>
    <contour>
      <point x="705" y="367" type="curve" smooth="yes"/>
      <point x="705" y="542"/>
      <point x="581" y="675"/>
      <point x="410" y="675" type="curve" smooth="yes"/>
      <point x="242" y="675"/>
      <point x="118" y="542"/>
      <point x="118" y="366" type="curve" smooth="yes"/>
      <point x="118" y="188"/>
      <point x="250" y="55"/>
      <point x="412" y="55" type="curve" smooth="yes"/>
      <point x="574" y="55"/>
      <point x="705" y="184"/>
    </contour>
  </outline>
</glyph>
<glyph name="P" format="1">
  <advance width="540"/>
  <unicode hex="0050"/>
  <outline>
    <contour>
      <point x="505" y="520" type="curve" smooth="yes"/>
      <point x="505" y="398"/>
      <point x="413" y="304"/>
      <point x="273" y="304" type="curve" smooth="yes"/>
      <point x="147" y="304" type="line"/>
      <point x="147" y="0" type="line"/>
      <point x="78" y="0" type="line"/>
      <point x="78" y="730" type="line"/>
      <point x="264" y="730" type="line" smooth="yes"/>
      <point x="420" y="730"/>
      <point x="505" y="640"/>
    </contour>
    <contour>
      <point x="433" y="520" type="curve" smooth="yes"/>
      <point x="433" y="612"/>
      <point x="374" y="666"/>
      <point x="253" y="666" type="curve" smooth="yes"/>
      <point x="147" y="666" type="line"/>
      <point x="147" y="368" type="line"/>
      <point x="266" y="368" type="line" smooth="yes"/>
      <point x="377" y="368"/>
      <point x="433" y="432"/>
    </contour>
  </outline>
</glyph>
<glyph name="Q" format="1">
  <advance width="823"/>
  <unicode hex="0051"/>
  <outline>
    <contour>
      <point x="778" y="366" type="curve" smooth="yes"/>
      <point x="778" y="248"/>
      <point x="728" y="144"/>
      <point x="649" y="76" type="curve"/>
      <point x="676" y="59"/>
      <point x="706" y="46"/>
      <point x="730" y="44" type="curve"/>
      <point x="679" y="-13" type="line"/>
      <point x="649" y="-4"/>
      <point x="619" y="14"/>
      <point x="592" y="35" type="curve"/>
      <point x="539" y="6"/>
      <point x="478" y="-12"/>
      <point x="412" y="-12" type="curve" smooth="yes"/>
      <point x="207" y="-12"/>
      <point x="45" y="150"/>
      <point x="45" y="366" type="curve" smooth="yes"/>
      <point x="45" y="579"/>
      <point x="204" y="742"/>
      <point x="410" y="742" type="curve" smooth="yes"/>
      <point x="623" y="742"/>
      <point x="778" y="578"/>
    </contour>
    <contour>
      <point x="705" y="367" type="curve" smooth="yes"/>
      <point x="705" y="542"/>
      <point x="581" y="675"/>
      <point x="410" y="675" type="curve" smooth="yes"/>
      <point x="242" y="675"/>
      <point x="118" y="542"/>
      <point x="118" y="366" type="curve" smooth="yes"/>
      <point x="118" y="188"/>
      <point x="250" y="55"/>
      <point x="412" y="55" type="curve" smooth="yes"/>
      <point x="458" y="55"/>
      <point x="501" y="65"/>
      <point x="540" y="84" type="curve"/>
      <point x="519" y="107"/>
      <point x="501" y="130"/>
      <point x="492" y="148" type="curve"/>
      <point x="539" y="186" type="line"/>
      <point x="550" y="165"/>
      <point x="570" y="142"/>
      <point x="593" y="119" type="curve"/>
      <point x="662" y="174"/>
      <point x="705" y="262"/>
    </contour>
  </outline>
</glyph>
<glyph name="R" format="1">
  <advance width="573"/>
  <unicode hex="0052"/>
  <outline>
    <contour>
      <point x="542" y="0" type="line"/>
      <point x="452" y="0" type="line"/>
      <point x="147" y="346" type="line"/>
      <point x="147" y="0" type="line"/>
      <point x="78" y="0" type="line"/>
      <point x="78" y="730" type="line"/>
      <point x="282" y="730" type="line" smooth="yes"/>
      <point x="412" y="730"/>
      <point x="511" y="645"/>
      <point x="511" y="522" type="curve" smooth="yes"/>
      <point x="511" y="396"/>
      <point x="406" y="313"/>
      <point x="284" y="313" type="curve" smooth="yes"/>
      <point x="265" y="313" type="line"/>
    </contour>
    <contour>
      <point x="439" y="524" type="curve" smooth="yes"/>
      <point x="439" y="607"/>
      <point x="370" y="666"/>
      <point x="274" y="666" type="curve" smooth="yes"/>
      <point x="147" y="666" type="line"/>
      <point x="147" y="371" type="line"/>
      <point x="267" y="371" type="line" smooth="yes"/>
      <point x="364" y="371"/>
      <point x="439" y="424"/>
    </contour>
  </outline>
</glyph>
<glyph name="S" format="1">
  <advance width="499"/>
  <unicode hex="0053"/>
  <outline>
    <contour>
      <point x="460" y="183" type="curve" smooth="yes"/>
      <point x="460" y="64"/>
      <point x="360" y="-12"/>
      <point x="247" y="-12" type="curve" smooth="yes"/>
      <point x="175" y="-12"/>
      <point x="103" y="12"/>
      <point x="45" y="63" type="curve"/>
      <point x="87" y="115" type="line"/>
      <point x="129" y="78"/>
      <point x="187" y="55"/>
      <point x="245" y="55" type="curve" smooth="yes"/>
      <point x="324" y="55"/>
      <point x="388" y="101"/>
      <point x="388" y="179" type="curve" smooth="yes"/>
      <point x="388" y="264"/>
      <point x="316" y="303"/>
      <point x="241" y="342" type="curve" smooth="yes"/>
      <point x="147" y="390"/>
      <point x="51" y="437"/>
      <point x="51" y="561" type="curve" smooth="yes"/>
      <point x="51" y="669"/>
      <point x="134" y="742"/>
      <point x="246" y="742" type="curve" smooth="yes"/>
      <point x="321" y="742"/>
      <point x="383" y="721"/>
      <point x="437" y="671" type="curve"/>
      <point x="394" y="618" type="line"/>
      <point x="351" y="660"/>
      <point x="308" y="675"/>
      <point x="246" y="675" type="curve" smooth="yes"/>
      <point x="182" y="675"/>
      <point x="124" y="636"/>
      <point x="124" y="564" type="curve" smooth="yes"/>
      <point x="124" y="477"/>
      <point x="191" y="448"/>
      <point x="283" y="400" type="curve" smooth="yes"/>
      <point x="372" y="354"/>
      <point x="460" y="307"/>
    </contour>
  </outline>
</glyph>
<glyph name="T" format="1">
  <advance width="478"/>
  <unicode hex="0054"/>
  <outline>
    <contour>
      <point x="444" y="666" type="line"/>
      <point x="273" y="666" type="line"/>
      <point x="273" y="0" type="line"/>
      <point x="203" y="0" type="line"/>
      <point x="203" y="666" type="line"/>
      <point x="34" y="666" type="line"/>
      <point x="34" y="730" type="line"/>
      <point x="444" y="730" type="line"/>
    </contour>
  </outline>
</glyph>
<glyph name="V" format="1">
  <advance width="643"/>
  <unicode hex="0056"/>
  <outline>
    <contour>
      <point x="615" y="730" type="line"/>
      <point x="335" y="-16" type="line"/>
      <point x="307" y="-16" type="line"/>
      <point x="28" y="730" type="line"/>
      <point x="98" y="730" type="line"/>
      <point x="322" y="132" type="line"/>
      <point x="547" y="730" type="line"/>
    </contour>
  </outline>
</glyph>
<glyph name="W" format="1">
  <advance width="924"/>
  <unicode hex="0057"/>
  <outline>
    <contour>
      <point x="891" y="730" type="line"/>
      <point x="677" y="0" type="line"/>
      <point x="628" y="0" type="line"/>
      <point x="461" y="578" type="line"/>
      <point x="292" y="0" type="line"/>
      <point x="244" y="0" type="line"/>
      <point x="33" y="730" type="line"/>
      <point x="103" y="730" type="line"/>
      <point x="271" y="151" type="line"/>
      <point x="439" y="730" type="line"/>
      <point x="486" y="730" type="line"/>
      <point x="653" y="152" type="line"/>
      <point x="822" y="730" type="line"/>
    </contour>
  </outline>
</glyph>
<glyph name="X" format="1">
  <advance width="682"/>
  <unicode hex="0058"/>
  <outline>
    <contour>
      <point x="652" y="0" type="line"/>
      <point x="568" y="0" type="line"/>
      <point x="341" y="332" type="line"/>
      <point x="112" y="0" type="line"/>
      <point x="31" y="0" type="line"/>
      <point x="301" y="392" type="line"/>
      <point x="70" y="730" type="line"/>
      <point x="154" y="730" type="line"/>
      <point x="343" y="455" type="line"/>
      <point x="533" y="730" type="line"/>
      <point x="612" y="730" type="line"/>
      <point x="383" y="394" type="line"/>
    </contour>
  </outline>
</glyph>
<glyph name="Y" format="1">
  <advance width="636"/>
  <unicode hex="0059"/>
  <outline>
    <contour>
      <point x="611" y="730" type="line"/>
      <point x="351" y="344" type="line"/>
      <point x="351" y="0" type="line"/>
      <point x="281" y="0" type="line"/>
      <point x="281" y="345" type="line"/>
      <point x="24" y="730" type="line"/>
      <point x="105" y="730" type="line"/>
      <point x="319" y="412" type="line"/>
      <point x="532" y="730" type="line"/>
    </contour>
  </outline>
</glyph>
<glyph name="Z" format="1">
  <advance width="623"/>
  <unicode hex="005A"/>
  <outline>
    <contour>
      <point x="579" y="730" type="line"/>
      <point x="151" y="66" type="line"/>
      <point x="575" y="66" type="line"/>
      <point x="575" y="0" type="line"/>
      <point x="31" y="0" type="line"/>
      <point x="457" y="664" type="line"/>
      <point x="87" y="664" type="line"/>
      <point x="87" y="730" type="line"/>
    </contour>
  </outline>
</glyph>
<glyph name="bracketleft" format="1">
  <advance width="277"/>
  <unicode hex="005B"/>
  <outline>
    <contour>
      <point x="247" y="-179" type="line"/>
      <point x="75" y="-179" type="line"/>
      <point x="75" y="730" type="line"/>
      <point x="247" y="730" type="line"/>
      <point x="247" y="670" type="line"/>
      <point x="141" y="670" type="line"/>
      <point x="141" y="-119" type="line"/>
      <point x="247" y="-119" type="line"/>
    </contour>
  </outline>
</glyph>
<glyph name="bracketright" format="1">
  <advance width="277"/>
  <unicode hex="005D"/>
  <outline>
    <contour>
      <point x="202" y="-179" type="line"/>
      <point x="30" y="-179" type="line"/>
      <point x="30" y="-119" type="line"/>
      <point x="136" y="-119" type="line"/>
      <point x="136" y="670" type="line"/>
      <point x="30" y="670" type="line"/>
      <point x="30" y="730" type="line"/>
      <point x="202" y="730" type="line"/>
    </contour>
  </outline>
</glyph>
<glyph name="asciicircum" format="1">
  <advance width="483"/>
  <unicode hex="005E"/>
  <outline>
    <contour>
      <point x="446" y="369" type="line"/>
      <point x="371" y="369" type="line"/>
      <point x="239" y="660" type="line"/>
      <point x="109" y="369" type="line"/>
      <point x="34" y="369" type="line"/>
      <point x="207" y="730" type="line"/>
      <point x="273" y="730" type="line"/>
    </contour>
  </outline>
</glyph>
<glyph name="grave" format="1">
  <advance width="467"/>
  <unicode hex="0060"/>
  <outline>
    <contour>
      <point x="312" y="488" type="line"/>
      <point x="244" y="488" type="line"/>
      <point x="156" y="626" type="line"/>
      <point x="226" y="626" type="line"/>
    </contour>
  </outline>
</glyph>
<glyph name="a" format="1">
  <advance width="442"/>
  <unicode hex="0061"/>
  <outline>
    <contour>
      <point x="387" y="0" type="line"/>
      <point x="322" y="0" type="line"/>
      <point x="322" y="39" type="line"/>
      <point x="286" y="9"/>
      <point x="239" y="-12"/>
      <point x="182" y="-12" type="curve" smooth="yes"/>
      <point x="91" y="-12"/>
      <point x="33" y="41"/>
      <point x="33" y="120" type="curve" smooth="yes"/>
      <point x="33" y="216"/>
      <point x="119" y="266"/>
      <point x="250" y="266" type="curve" smooth="yes"/>
      <point x="323" y="266" type="line"/>
      <point x="323" y="284" type="line" smooth="yes"/>
      <point x="323" y="348"/>
      <point x="282" y="363"/>
      <point x="223" y="363" type="curve" smooth="yes"/>
      <point x="173" y="363"/>
      <point x="133" y="355"/>
      <point x="99" y="337" type="curve"/>
      <point x="75" y="387" type="line"/>
      <point x="112" y="409"/>
      <point x="167" y="420"/>
      <point x="218" y="420" type="curve" smooth="yes"/>
      <point x="330" y="420"/>
      <point x="387" y="377"/>
      <point x="387" y="297" type="curve" smooth="yes"/>
    </contour>
    <contour>
      <point x="322" y="95" type="curve"/>
      <point x="322" y="211" type="line"/>
      <point x="267" y="211" type="line" smooth="yes"/>
      <point x="158" y="211"/>
      <point x="100" y="185"/>
      <point x="100" y="120" type="curve" smooth="yes"/>
      <point x="100" y="71"/>
      <point x="145" y="47"/>
      <point x="194" y="47" type="curve" smooth="yes"/>
      <point x="245" y="47"/>
      <point x="286" y="67"/>
    </contour>
  </outline>
</glyph>
<glyph name="b" format="1">
  <advance width="489"/>
  <unicode hex="0062"/>
  <outline>
    <contour>
      <point x="455" y="206" type="curve" smooth="yes"/>
      <point x="455" y="91"/>
      <point x="380" y="-12"/>
      <point x="265" y="-12" type="curve" smooth="yes"/>
      <point x="199" y="-12"/>
      <point x="150" y="28"/>
      <point x="128" y="68" type="curve"/>
      <point x="128" y="0" type="line"/>
      <point x="63" y="0" type="line"/>
      <point x="63" y="730" type="line"/>
      <point x="128" y="730" type="line"/>
      <point x="128" y="340" type="line"/>
      <point x="150" y="380"/>
      <point x="203" y="420"/>
      <point x="265" y="420" type="curve" smooth="yes"/>
      <point x="377" y="420"/>
      <point x="455" y="336"/>
    </contour>
    <contour>
      <point x="388" y="204" type="curve" smooth="yes"/>
      <point x="388" y="294"/>
      <point x="342" y="359"/>
      <point x="255" y="359" type="curve" smooth="yes"/>
      <point x="178" y="359"/>
      <point x="124" y="284"/>
      <point x="124" y="206" type="curve" smooth="yes"/>
      <point x="124" y="121"/>
      <point x="180" y="48"/>
      <point x="257" y="48" type="curve" smooth="yes"/>
      <point x="342" y="48"/>
      <point x="388" y="122"/>
    </contour>
  </outline>
</glyph>
<glyph name="c" format="1">
  <advance width="442"/>
  <unicode hex="0063"/>
  <outline>
    <contour>
      <point x="419" y="88" type="line"/>
      <point x="381" y="33"/>
      <point x="318" y="-12"/>
      <point x="241" y="-12" type="curve" smooth="yes"/>
      <point x="114" y="-12"/>
      <point x="34" y="84"/>
      <point x="34" y="205" type="curve" smooth="yes"/>
      <point x="34" y="322"/>
      <point x="119" y="420"/>
      <point x="236" y="420" type="curve" smooth="yes"/>
      <point x="329" y="420"/>
      <point x="381" y="373"/>
      <point x="411" y="334" type="curve"/>
      <point x="362" y="296" type="line"/>
      <point x="335" y="331"/>
      <point x="297" y="359"/>
      <point x="240" y="359" type="curve" smooth="yes"/>
      <point x="156" y="359"/>
      <point x="101" y="287"/>
      <point x="101" y="208" type="curve" smooth="yes"/>
      <point x="101" y="115"/>
      <point x="159" y="48"/>
      <point x="239" y="48" type="curve" smooth="yes"/>
      <point x="297" y="48"/>
      <point x="338" y="77"/>
      <point x="372" y="123" type="curve"/>
    </contour>
  </outline>
</glyph>
<glyph name="d" format="1">
  <advance width="489"/>
  <unicode hex="0064"/>
  <outline>
    <contour>
      <point x="426" y="0" type="line"/>
      <point x="361" y="0" type="line"/>
      <point x="361" y="66" type="line"/>
      <point x="339" y="26"/>
      <point x="285" y="-12"/>
      <point x="220" y="-12" type="curve" smooth="yes"/>
      <point x="107" y="-12"/>
      <point x="34" y="88"/>
      <point x="34" y="204" type="curve" smooth="yes"/>
      <point x="34" y="333"/>
      <point x="118" y="420"/>
      <point x="225" y="420" type="curve" smooth="yes"/>
      <point x="286" y="420"/>
      <point x="337" y="385"/>
      <point x="361" y="342" type="curve"/>
      <point x="361" y="730" type="line"/>
      <point x="426" y="730" type="line"/>
    </contour>
    <contour>
      <point x="364" y="206" type="curve" smooth="yes"/>
      <point x="364" y="284"/>
      <point x="312" y="359"/>
      <point x="231" y="359" type="curve" smooth="yes"/>
      <point x="151" y="359"/>
      <point x="101" y="294"/>
      <point x="101" y="204" type="curve" smooth="yes"/>
      <point x="101" y="121"/>
      <point x="146" y="48"/>
      <point x="230" y="48" type="curve" smooth="yes"/>
      <point x="310" y="48"/>
      <point x="364" y="120"/>
    </contour>
  </outline>
</glyph>
<glyph name="e" format="1">
  <advance width="465"/>
  <unicode hex="0065"/>
  <outline>
    <contour>
      <point x="434" y="202" type="curve"/>
      <point x="100" y="202" type="line"/>
      <point x="102" y="115"/>
      <point x="155" y="48"/>
      <point x="245" y="48" type="curve" smooth="yes"/>
      <point x="306" y="48"/>
      <point x="347" y="70"/>
      <point x="384" y="104" type="curve"/>
      <point x="426" y="63" type="line"/>
      <point x="388" y="24"/>
      <point x="330" y="-12"/>
      <point x="243" y="-12" type="curve" smooth="yes"/>
      <point x="113" y="-12"/>
      <point x="34" y="83"/>
      <point x="34" y="209" type="curve" smooth="yes"/>
      <point x="34" y="321"/>
      <point x="112" y="420"/>
      <point x="238" y="420" type="curve" smooth="yes"/>
      <point x="365" y="420"/>
      <point x="432" y="319"/>
    </contour>
    <contour>
      <point x="361" y="254" type="line"/>
      <point x="351" y="309"/>
      <point x="308" y="361"/>
      <point x="235" y="361" type="curve" smooth="yes"/>
      <point x="159" y="361"/>
      <point x="114" y="314"/>
      <point x="103" y="254" type="curve"/>
    </contour>
  </outline>
</glyph>
<glyph name="f" format="1">
  <advance width="231"/>
  <unicode hex="0066"/>
  <outline>
    <contour>
      <point x="213" y="348" type="line"/>
      <point x="143" y="348" type="line"/>
      <point x="143" y="0" type="line"/>
      <point x="78" y="0" type="line"/>
      <point x="78" y="348" type="line"/>
      <point x="12" y="348" type="line"/>
      <point x="12" y="408" type="line"/>
      <point x="78" y="408" type="line"/>
      <point x="78" y="640" type="line" smooth="yes"/>
      <point x="78" y="703"/>
      <point x="122" y="731"/>
      <point x="171" y="731" type="curve" smooth="yes"/>
      <point x="179" y="731"/>
      <point x="203" y="731"/>
      <point x="212" y="730" type="curve"/>
      <point x="212" y="671" type="line"/>
      <point x="212" y="671"/>
      <point x="188" y="673"/>
      <point x="182" y="672" type="curve"/>
      <point x="159" y="671"/>
      <point x="143" y="659"/>
      <point x="143" y="620" type="curve" smooth="yes"/>
      <point x="143" y="408" type="line"/>
      <point x="213" y="408" type="line"/>
    </contour>
  </outline>
</glyph>
<glyph name="g" format="1">
  <advance width="489"/>
  <unicode hex="0067"/>
  <outline>
    <contour>
      <point x="426" y="3" type="line" smooth="yes"/>
      <point x="426" y="-129"/>
      <point x="336" y="-190"/>
      <point x="227" y="-190" type="curve" smooth="yes"/>
      <point x="164" y="-190"/>
      <point x="102" y="-171"/>
      <point x="58" y="-129" type="curve"/>
      <point x="95" y="-83" type="line"/>
      <point x="136" y="-118"/>
      <point x="181" y="-131"/>
      <point x="226" y="-131" type="curve" smooth="yes"/>
      <point x="298" y="-131"/>
      <point x="361" y="-90"/>
      <point x="361" y="-9" type="curve" smooth="yes"/>
      <point x="361" y="66" type="line"/>
      <point x="336" y="21"/>
      <point x="285" y="-12"/>
      <point x="223" y="-12" type="curve" smooth="yes"/>
      <point x="112" y="-12"/>
      <point x="34" y="72"/>
      <point x="34" y="201" type="curve" smooth="yes"/>
      <point x="34" y="317"/>
      <point x="109" y="420"/>
      <point x="224" y="420" type="curve" smooth="yes"/>
      <point x="289" y="420"/>
      <point x="339" y="381"/>
      <point x="361" y="341" type="curve"/>
      <point x="361" y="408" type="line"/>
      <point x="426" y="408" type="line"/>
    </contour>
    <contour>
      <point x="364" y="203" type="curve" smooth="yes"/>
      <point x="364" y="287"/>
      <point x="310" y="359"/>
      <point x="231" y="359" type="curve" smooth="yes"/>
      <point x="147" y="359"/>
      <point x="101" y="285"/>
      <point x="101" y="205" type="curve" smooth="yes"/>
      <point x="101" y="114"/>
      <point x="148" y="48"/>
      <point x="233" y="48" type="curve" smooth="yes"/>
      <point x="311" y="48"/>
      <point x="364" y="123"/>
    </contour>
  </outline>
</glyph>
<glyph name="h" format="1">
  <advance width="459"/>
  <unicode hex="0068"/>
  <outline>
    <contour>
      <point x="405" y="0" type="line"/>
      <point x="340" y="0" type="line"/>
      <point x="340" y="260" type="line" smooth="yes"/>
      <point x="340" y="322"/>
      <point x="301" y="360"/>
      <point x="245" y="360" type="curve" smooth="yes"/>
      <point x="178" y="360"/>
      <point x="128" y="304"/>
      <point x="128" y="236" type="curve" smooth="yes"/>
      <point x="128" y="0" type="line"/>
      <point x="63" y="0" type="line"/>
      <point x="63" y="730" type="line"/>
      <point x="128" y="730" type="line"/>
      <point x="128" y="349" type="line"/>
      <point x="151" y="390"/>
      <point x="199" y="420"/>
      <point x="254" y="420" type="curve" smooth="yes"/>
      <point x="345" y="420"/>
      <point x="405" y="362"/>
      <point x="405" y="271" type="curve" smooth="yes"/>
    </contour>
  </outline>
</glyph>
<glyph name="j" format="1">
  <advance width="191"/>
  <unicode hex="006A"/>
  <outline>
    <contour>
      <point x="128" y="512" type="line"/>
      <point x="63" y="512" type="line"/>
      <point x="63" y="608" type="line"/>
      <point x="128" y="608" type="line"/>
    </contour>
    <contour>
      <point x="128" y="-100" type="line" smooth="yes"/>
      <point x="128" y="-162"/>
      <point x="82" y="-184"/>
      <point x="37" y="-184" type="curve" smooth="yes"/>
      <point x="17" y="-184"/>
      <point x="7" y="-183"/>
      <point x="-9" y="-179" type="curve"/>
      <point x="-13" y="-122" type="line"/>
      <point x="4" y="-126"/>
      <point x="15" y="-126"/>
      <point x="29" y="-126" type="curve" smooth="yes"/>
      <point x="45" y="-125"/>
      <point x="63" y="-121"/>
      <point x="63" y="-95" type="curve" smooth="yes"/>
      <point x="63" y="408" type="line"/>
      <point x="128" y="408" type="line"/>
    </contour>
  </outline>
</glyph>
<glyph name="k" format="1">
  <advance width="438"/>
  <unicode hex="006B"/>
  <outline>
    <contour>
      <point x="421" y="0" type="line"/>
      <point x="335" y="0" type="line"/>
      <point x="176" y="192" type="line"/>
      <point x="128" y="148" type="line"/>
      <point x="128" y="0" type="line"/>
      <point x="63" y="0" type="line"/>
      <point x="63" y="730" type="line"/>
      <point x="128" y="730" type="line"/>
      <point x="128" y="228" type="line"/>
      <point x="317" y="408" type="line"/>
      <point x="408" y="408" type="line"/>
      <point x="224" y="236" type="line"/>
    </contour>
  </outline>
</glyph>
<glyph name="m" format="1">
  <advance width="710"/>
  <unicode hex="006D"/>
  <outline>
    <contour>
      <point x="656" y="0" type="line"/>
      <point x="590" y="0" type="line"/>
      <point x="590" y="265" type="line" smooth="yes"/>
      <point x="590" y="324"/>
      <point x="559" y="360"/>
      <point x="508" y="360" type="curve" smooth="yes"/>
      <point x="443" y="360"/>
      <point x="392" y="308"/>
      <point x="392" y="247" type="curve" smooth="yes"/>
      <point x="392" y="0" type="line"/>
      <point x="327" y="0" type="line"/>
      <point x="327" y="265" type="line" smooth="yes"/>
      <point x="327" y="324"/>
      <point x="299" y="360"/>
      <point x="243" y="360" type="curve" smooth="yes"/>
      <point x="179" y="360"/>
      <point x="128" y="307"/>
      <point x="128" y="246" type="curve" smooth="yes"/>
      <point x="128" y="0" type="line"/>
      <point x="63" y="0" type="line"/>
      <point x="63" y="408" type="line"/>
      <point x="128" y="408" type="line"/>
      <point x="128" y="353" type="line"/>
      <point x="152" y="392"/>
      <point x="200" y="420"/>
      <point x="252" y="420" type="curve" smooth="yes"/>
      <point x="319" y="420"/>
      <point x="358" y="391"/>
      <point x="378" y="346" type="curve"/>
      <point x="408" y="391"/>
      <point x="466" y="420"/>
      <point x="518" y="420" type="curve" smooth="yes"/>
      <point x="615" y="420"/>
      <point x="656" y="355"/>
      <point x="656" y="273" type="curve" smooth="yes"/>
    </contour>
  </outline>
</glyph>
<glyph name="n" format="1">
  <advance width="461"/>
  <unicode hex="006E"/>
  <outline>
    <contour>
      <point x="406" y="0" type="line"/>
      <point x="341" y="0" type="line"/>
      <point x="341" y="260" type="line" smooth="yes"/>
      <point x="341" y="318"/>
      <point x="308" y="360"/>
      <point x="245" y="360" type="curve" smooth="yes"/>
      <point x="169" y="360"/>
      <point x="128" y="293"/>
      <point x="128" y="236" type="curve" smooth="yes"/>
      <point x="128" y="0" type="line"/>
      <point x="63" y="0" type="line"/>
      <point x="63" y="408" type="line"/>
      <point x="128" y="408" type="line"/>
      <point x="128" y="349" type="line"/>
      <point x="153" y="393"/>
      <point x="201" y="420"/>
      <point x="255" y="420" type="curve" smooth="yes"/>
      <point x="347" y="420"/>
      <point x="406" y="361"/>
      <point x="406" y="271" type="curve" smooth="yes"/>
    </contour>
  </outline>
</glyph>
<glyph name="o" format="1">
  <advance width="493"/>
  <unicode hex="006F"/>
  <outline>
    <contour>
      <point x="459" y="207" type="curve" smooth="yes"/>
      <point x="459" y="82"/>
      <point x="367" y="-12"/>
      <point x="246" y="-12" type="curve" smooth="yes"/>
      <point x="126" y="-12"/>
      <point x="34" y="76"/>
      <point x="34" y="205" type="curve" smooth="yes"/>
      <point x="34" y="325"/>
      <point x="122" y="420"/>
      <point x="245" y="420" type="curve" smooth="yes"/>
      <point x="368" y="420"/>
      <point x="459" y="327"/>
    </contour>
    <contour>
      <point x="392" y="205" type="curve" smooth="yes"/>
      <point x="392" y="297"/>
      <point x="331" y="359"/>
      <point x="245" y="359" type="curve" smooth="yes"/>
      <point x="160" y="359"/>
      <point x="101" y="293"/>
      <point x="101" y="205" type="curve" smooth="yes"/>
      <point x="101" y="113"/>
      <point x="160" y="48"/>
      <point x="245" y="48" type="curve" smooth="yes"/>
      <point x="336" y="48"/>
      <point x="392" y="115"/>
    </contour>
  </outline>
</glyph>
<glyph name="p" format="1">
  <advance width="489"/>
  <unicode hex="0070"/>
  <outline>
    <contour>
      <point x="455" y="204" type="curve" smooth="yes"/>
      <point x="455" y="74"/>
      <point x="371" y="-12"/>
      <point x="264" y="-12" type="curve" smooth="yes"/>
      <point x="203" y="-12"/>
      <point x="152" y="23"/>
      <point x="128" y="66" type="curve"/>
      <point x="128" y="-179" type="line"/>
      <point x="63" y="-179" type="line"/>
      <point x="63" y="408" type="line"/>
      <point x="128" y="408" type="line"/>
      <point x="128" y="341" type="line"/>
      <point x="150" y="381"/>
      <point x="203" y="420"/>
      <point x="269" y="420" type="curve" smooth="yes"/>
      <point x="382" y="420"/>
      <point x="455" y="319"/>
    </contour>
    <contour>
      <point x="388" y="204" type="curve" smooth="yes"/>
      <point x="388" y="287"/>
      <point x="343" y="359"/>
      <point x="259" y="359" type="curve" smooth="yes"/>
      <point x="180" y="359"/>
      <point x="124" y="288"/>
      <point x="124" y="202" type="curve" smooth="yes"/>
      <point x="124" y="124"/>
      <point x="177" y="48"/>
      <point x="257" y="48" type="curve" smooth="yes"/>
      <point x="337" y="48"/>
      <point x="388" y="114"/>
    </contour>
  </outline>
</glyph>
<glyph name="q" format="1">
  <advance width="489"/>
  <unicode hex="0071"/>
  <outline>
    <contour>
      <point x="426" y="-179" type="line"/>
      <point x="361" y="-179" type="line"/>
      <point x="361" y="66" type="line"/>
      <point x="337" y="23"/>
      <point x="285" y="-12"/>
      <point x="223" y="-12" type="curve" smooth="yes"/>
      <point x="112" y="-12"/>
      <point x="34" y="72"/>
      <point x="34" y="201" type="curve" smooth="yes"/>
      <point x="34" y="317"/>
      <point x="109" y="420"/>
      <point x="224" y="420" type="curve" smooth="yes"/>
      <point x="289" y="420"/>
      <point x="339" y="381"/>
      <point x="361" y="341" type="curve"/>
      <point x="361" y="408" type="line"/>
      <point x="426" y="408" type="line"/>
    </contour>
    <contour>
      <point x="364" y="203" type="curve" smooth="yes"/>
      <point x="364" y="287"/>
      <point x="310" y="359"/>
      <point x="231" y="359" type="curve" smooth="yes"/>
      <point x="147" y="359"/>
      <point x="101" y="285"/>
      <point x="101" y="205" type="curve" smooth="yes"/>
      <point x="101" y="114"/>
      <point x="148" y="48"/>
      <point x="233" y="48" type="curve" smooth="yes"/>
      <point x="311" y="48"/>
      <point x="364" y="123"/>
    </contour>
  </outline>
</glyph>
<glyph name="r" format="1">
  <advance width="325"/>
  <unicode hex="0072"/>
  <outline>
    <contour>
      <point x="317" y="389" type="curve"/>
      <point x="284" y="336" type="line"/>
      <point x="265" y="352"/>
      <point x="246" y="359"/>
      <point x="225" y="359" type="curve" smooth="yes"/>
      <point x="172" y="359"/>
      <point x="128" y="299"/>
      <point x="128" y="229" type="curve" smooth="yes"/>
      <point x="128" y="0" type="line"/>
      <point x="63" y="0" type="line"/>
      <point x="63" y="408" type="line"/>
      <point x="128" y="408" type="line"/>
      <point x="128" y="352" type="line"/>
      <point x="151" y="392"/>
      <point x="189" y="420"/>
      <point x="236" y="420" type="curve" smooth="yes"/>
      <point x="269" y="420"/>
      <point x="292" y="411"/>
    </contour>
  </outline>
</glyph>
<glyph name="s" format="1">
  <advance width="361"/>
  <unicode hex="0073"/>
  <outline>
    <contour>
      <point x="323" y="109" type="curve" smooth="yes"/>
      <point x="323" y="40"/>
      <point x="256" y="-11"/>
      <point x="181" y="-11" type="curve" smooth="yes"/>
      <point x="127" y="-11"/>
      <point x="74" y="8"/>
      <point x="37" y="37" type="curve"/>
      <point x="72" y="87" type="line"/>
      <point x="104" y="62"/>
      <point x="146" y="48"/>
      <point x="179" y="48" type="curve" smooth="yes"/>
      <point x="218" y="48"/>
      <point x="257" y="71"/>
      <point x="257" y="107" type="curve" smooth="yes"/>
      <point x="257" y="152"/>
      <point x="216" y="166"/>
      <point x="167" y="184" type="curve" smooth="yes"/>
      <point x="110" y="204"/>
      <point x="46" y="233"/>
      <point x="46" y="309" type="curve" smooth="yes"/>
      <point x="46" y="377"/>
      <point x="111" y="420"/>
      <point x="179" y="420" type="curve" smooth="yes"/>
      <point x="224" y="420"/>
      <point x="269" y="409"/>
      <point x="310" y="379" type="curve"/>
      <point x="280" y="329" type="line"/>
      <point x="248" y="352"/>
      <point x="213" y="362"/>
      <point x="179" y="362" type="curve" smooth="yes"/>
      <point x="147" y="362"/>
      <point x="111" y="347"/>
      <point x="111" y="311" type="curve" smooth="yes"/>
      <point x="111" y="276"/>
      <point x="145" y="261"/>
      <point x="195" y="243" type="curve" smooth="yes"/>
      <point x="255" y="222"/>
      <point x="323" y="193"/>
    </contour>
  </outline>
</glyph>
<glyph name="t" format="1">
  <advance width="255"/>
  <unicode hex="0074"/>
  <outline>
    <contour>
      <point x="219" y="-2" type="line"/>
      <point x="219" y="-2"/>
      <point x="197" y="-3"/>
      <point x="195" y="-3" type="curve" smooth="yes"/>
      <point x="122" y="-3"/>
      <point x="76" y="26"/>
      <point x="76" y="107" type="curve" smooth="yes"/>
      <point x="76" y="348" type="line"/>
      <point x="16" y="348" type="line"/>
      <point x="16" y="408" type="line"/>
      <point x="76" y="408" type="line"/>
      <point x="76" y="599" type="line"/>
      <point x="141" y="599" type="line"/>
      <point x="141" y="408" type="line"/>
      <point x="218" y="408" type="line"/>
      <point x="218" y="348" type="line"/>
      <point x="141" y="348" type="line"/>
      <point x="141" y="108" type="line" smooth="yes"/>
      <point x="141" y="76"/>
      <point x="158" y="58"/>
      <point x="197" y="58" type="curve" smooth="yes"/>
      <point x="199" y="58"/>
      <point x="219" y="58"/>
      <point x="219" y="58" type="curve"/>
    </contour>
  </outline>
</glyph>
<glyph name="u" format="1">
  <advance width="463"/>
  <unicode hex="0075"/>
  <outline>
    <contour>
      <point x="400" y="0" type="line"/>
      <point x="335" y="0" type="line"/>
      <point x="335" y="59" type="line"/>
      <point x="311" y="17"/>
      <point x="264" y="-12"/>
      <point x="207" y="-12" type="curve" smooth="yes"/>
      <point x="111" y="-12"/>
      <point x="57" y="46"/>
      <point x="57" y="137" type="curve" smooth="yes"/>
      <point x="57" y="408" type="line"/>
      <point x="122" y="408" type="line"/>
      <point x="122" y="148" type="line" smooth="yes"/>
      <point x="122" y="92"/>
      <point x="156" y="47"/>
      <point x="218" y="47" type="curve" smooth="yes"/>
      <point x="291" y="47"/>
      <point x="335" y="115"/>
      <point x="335" y="172" type="curve" smooth="yes"/>
      <point x="335" y="408" type="line"/>
      <point x="400" y="408" type="line"/>
    </contour>
  </outline>
</glyph>
<glyph name="v" format="1">
  <advance width="411"/>
  <unicode hex="0076"/>
  <outline>
    <contour>
      <point x="397" y="408" type="line"/>
      <point x="206" y="-18" type="line"/>
      <point x="14" y="408" type="line"/>
      <point x="85" y="408" type="line"/>
      <point x="206" y="130" type="line"/>
      <point x="329" y="408" type="line"/>
    </contour>
  </outline>
</glyph>
<glyph name="w" format="1">
  <advance width="630"/>
  <unicode hex="0077"/>
  <outline>
    <contour>
      <point x="616" y="408" type="line"/>
      <point x="440" y="-18" type="line"/>
      <point x="316" y="276" type="line"/>
      <point x="191" y="-18" type="line"/>
      <point x="14" y="408" type="line"/>
      <point x="84" y="408" type="line"/>
      <point x="196" y="137" type="line"/>
      <point x="316" y="413" type="line"/>
      <point x="437" y="139" type="line"/>
      <point x="547" y="408" type="line"/>
    </contour>
  </outline>
</glyph>
<glyph name="x" format="1">
  <advance width="423"/>
  <unicode hex="0078"/>
  <outline>
    <contour>
      <point x="407" y="0" type="line"/>
      <point x="327" y="0" type="line"/>
      <point x="211" y="169" type="line"/>
      <point x="94" y="0" type="line"/>
      <point x="16" y="0" type="line"/>
      <point x="172" y="223" type="line"/>
      <point x="42" y="408" type="line"/>
      <point x="120" y="408" type="line"/>
      <point x="211" y="277" type="line"/>
      <point x="301" y="408" type="line"/>
      <point x="378" y="408" type="line"/>
      <point x="250" y="224" type="line"/>
    </contour>
  </outline>
</glyph>
<glyph name="y" format="1">
  <advance width="409"/>
  <unicode hex="0079"/>
  <outline>
    <contour>
      <point x="394" y="408" type="line"/>
      <point x="203" y="-92" type="line" smooth="yes"/>
      <point x="184" y="-143"/>
      <point x="153" y="-185"/>
      <point x="90" y="-185" type="curve" smooth="yes"/>
      <point x="65" y="-185"/>
      <point x="47" y="-182"/>
      <point x="27" y="-174" type="curve"/>
      <point x="27" y="-113" type="line"/>
      <point x="42" y="-121"/>
      <point x="56" y="-125"/>
      <point x="73" y="-125" type="curve" smooth="yes"/>
      <point x="122" y="-125"/>
      <point x="135" y="-90"/>
      <point x="151" y="-50" type="curve" smooth="yes"/>
      <point x="170" y="-2" type="line"/>
      <point x="15" y="408" type="line"/>
      <point x="85" y="408" type="line"/>
      <point x="208" y="85" type="line"/>
      <point x="326" y="408" type="line"/>
    </contour>
  </outline>
</glyph>
<glyph name="z" format="1">
  <advance width="424"/>
  <unicode hex="007A"/>
  <outline>
    <contour>
      <point x="400" y="408" type="line"/>
      <point x="139" y="60" type="line"/>
      <point x="381" y="60" type="line"/>
      <point x="381" y="0" type="line"/>
      <point x="19" y="0" type="line"/>
      <point x="279" y="347" type="line"/>
      <point x="57" y="347" type="line"/>
      <point x="57" y="408" type="line"/>
    </contour>
  </outline>
</glyph>
<glyph name="braceleft" format="1">
  <advance width="287"/>
  <unicode hex="007B"/>
  <outline>
    <contour>
      <point x="258" y="-179" type="line"/>
      <point x="124" y="-125"/>
      <point x="102" y="-54"/>
      <point x="102" y="88" type="curve" smooth="yes"/>
      <point x="102" y="172"/>
      <point x="98" y="255"/>
      <point x="32" y="255" type="curve"/>
      <point x="32" y="315" type="line"/>
      <point x="98" y="315"/>
      <point x="102" y="398"/>
      <point x="102" y="482" type="curve" smooth="yes"/>
      <point x="102" y="624"/>
      <point x="124" y="695"/>
      <point x="258" y="749" type="curve"/>
      <point x="258" y="701" type="line"/>
      <point x="187" y="650"/>
      <point x="169" y="610"/>
      <point x="169" y="496" type="curve" smooth="yes"/>
      <point x="169" y="401"/>
      <point x="166" y="319"/>
      <point x="97" y="285" type="curve"/>
      <point x="166" y="251"/>
      <point x="169" y="169"/>
      <point x="169" y="74" type="curve" smooth="yes"/>
      <point x="169" y="-40"/>
      <point x="187" y="-80"/>
      <point x="258" y="-131" type="curve"/>
    </contour>
  </outline>
</glyph>
<glyph name="braceright" format="1">
  <advance width="287"/>
  <unicode hex="007D"/>
  <outline>
    <contour>
      <point x="255" y="255" type="line"/>
      <point x="189" y="255"/>
      <point x="185" y="172"/>
      <point x="185" y="88" type="curve" smooth="yes"/>
      <point x="185" y="-54"/>
      <point x="163" y="-125"/>
      <point x="29" y="-179" type="curve"/>
      <point x="29" y="-131" type="line"/>
      <point x="100" y="-80"/>
      <point x="118" y="-40"/>
      <point x="118" y="74" type="curve" smooth="yes"/>
      <point x="118" y="169"/>
      <point x="121" y="251"/>
      <point x="190" y="285" type="curve"/>
      <point x="121" y="319"/>
      <point x="118" y="401"/>
      <point x="118" y="496" type="curve" smooth="yes"/>
      <point x="118" y="610"/>
      <point x="100" y="650"/>
      <point x="29" y="701" type="curve"/>
      <point x="29" y="749" type="line"/>
      <point x="163" y="695"/>
      <point x="185" y="624"/>
      <point x="185" y="482" type="curve" smooth="yes"/>
      <point x="185" y="398"/>
      <point x="189" y="315"/>
      <point x="255" y="315" type="curve"/>
    </contour>
  </outline>
</glyph>
<glyph name="asciitilde" format="1">
  <advance width="467"/>
  <unicode hex="007E"/>
  <outline>
    <contour>
      <point x="421" y="437" type="line"/>
      <point x="415" y="369"/>
      <point x="396" y="296"/>
      <point x="315" y="296" type="curve" smooth="yes"/>
      <point x="282" y="296"/>
      <point x="248" y="319"/>
      <point x="222" y="340" type="curve" smooth="yes"/>
      <point x="193" y="362"/>
      <point x="174" y="377"/>
      <point x="154" y="377" type="curve" smooth="yes"/>
      <point x="130" y="377"/>
      <point x="113" y="347"/>
      <point x="111" y="299" type="curve"/>
      <point x="46" y="299" type="line"/>
      <point x="52" y="366"/>
      <point x="70" y="439"/>
      <point x="152" y="439" type="curve" smooth="yes"/>
      <point x="184" y="439"/>
      <point x="218" y="416"/>
      <point x="244" y="396" type="curve" smooth="yes"/>
      <point x="271" y="376"/>
      <point x="294" y="358"/>
      <point x="313" y="358" type="curve" smooth="yes"/>
      <point x="337" y="358"/>
      <point x="354" y="390"/>
      <point x="356" y="437" type="curve"/>
    </contour>
  </outline>
</glyph>
<glyph name="exclamdown" format="1">
  <advance width="200"/>
  <unicode hex="00A1"/>
  <outline>
    <contour>
      <point x="135" y="634" type="line"/>
      <point x="63" y="634" type="line"/>
      <point x="63" y="730" type="line"/>
      <point x="135" y="730" type="line"/>
    </contour>
    <contour>
      <point x="135" y="0" type="line"/>
      <point x="63" y="0" type="line"/>
      <point x="63" y="369" type="line"/>
      <point x="77" y="589" type="line"/>
      <point x="120" y="589" type="line"/>
      <point x="135" y="369" type="line"/>
    </contour>
  </outline>
</glyph>
<glyph name="cent" format="1">
  <advance width="449"/>
  <unicode hex="00A2"/>
  <outline>
    <contour>
      <point x="419" y="88" type="line"/>
      <point x="384" y="38"/>
      <point x="329" y="-4"/>
      <point x="262" y="-11" type="curve"/>
      <point x="262" y="-79" type="line"/>
      <point x="215" y="-79" type="line"/>
      <point x="215" y="-11" type="line"/>
      <point x="103" y="2"/>
      <point x="34" y="93"/>
      <point x="34" y="205" type="curve" smooth="yes"/>
      <point x="34" y="314"/>
      <point x="109" y="408"/>
      <point x="215" y="418" type="curve"/>
      <point x="215" y="495" type="line"/>
      <point x="262" y="495" type="line"/>
      <point x="262" y="418" type="line"/>
      <point x="337" y="410"/>
      <point x="385" y="369"/>
      <point x="411" y="334" type="curve"/>
      <point x="362" y="296" type="line"/>
      <point x="338" y="327"/>
      <point x="306" y="352"/>
      <point x="262" y="358" type="curve"/>
      <point x="262" y="49" type="line"/>
      <point x="308" y="56"/>
      <point x="343" y="83"/>
      <point x="372" y="123" type="curve"/>
    </contour>
    <contour>
      <point x="215" y="50" type="curve"/>
      <point x="215" y="358" type="line"/>
      <point x="145" y="345"/>
      <point x="100" y="281"/>
      <point x="100" y="208" type="curve" smooth="yes"/>
      <point x="100" y="124"/>
      <point x="147" y="61"/>
    </contour>
  </outline>
</glyph>
<glyph name="sterling" format="1">
  <advance width="558"/>
  <unicode hex="00A3"/>
  <outline>
    <contour>
      <point x="522" y="154" type="line"/>
      <point x="524" y="66"/>
      <point x="498" y="-12"/>
      <point x="399" y="-12" type="curve" smooth="yes"/>
      <point x="349" y="-12"/>
      <point x="304" y="19"/>
      <point x="269" y="45" type="curve"/>
      <point x="237" y="8"/>
      <point x="191" y="-12"/>
      <point x="138" y="-12" type="curve" smooth="yes"/>
      <point x="87" y="-12"/>
      <point x="37" y="18"/>
      <point x="37" y="68" type="curve" smooth="yes"/>
      <point x="37" y="120"/>
      <point x="80" y="152"/>
      <point x="148" y="152" type="curve" smooth="yes"/>
      <point x="186" y="152"/>
      <point x="218" y="141"/>
      <point x="246" y="127" type="curve"/>
      <point x="250" y="141"/>
      <point x="253" y="156"/>
      <point x="253" y="170" type="curve" smooth="yes"/>
      <point x="253" y="190"/>
      <point x="251" y="209"/>
      <point x="244" y="226" type="curve"/>
      <point x="78" y="226" type="line"/>
      <point x="78" y="268" type="line"/>
      <point x="227" y="268" type="line"/>
      <point x="220" y="283"/>
      <point x="211" y="298"/>
      <point x="201" y="312" type="curve"/>
      <point x="78" y="312" type="line"/>
      <point x="78" y="353" type="line"/>
      <point x="172" y="353" type="line"/>
      <point x="130" y="413"/>
      <point x="83" y="464"/>
      <point x="83" y="545" type="curve" smooth="yes"/>
      <point x="83" y="664"/>
      <point x="170" y="742"/>
      <point x="297" y="742" type="curve" smooth="yes"/>
      <point x="431" y="742"/>
      <point x="507" y="654"/>
      <point x="508" y="558" type="curve"/>
      <point x="435" y="558" type="line"/>
      <point x="428" y="630"/>
      <point x="379" y="678"/>
      <point x="296" y="678" type="curve" smooth="yes"/>
      <point x="214" y="678"/>
      <point x="156" y="630"/>
      <point x="156" y="547" type="curve" smooth="yes"/>
      <point x="156" y="466"/>
      <point x="210" y="417"/>
      <point x="254" y="353" type="curve"/>
      <point x="422" y="353" type="line"/>
      <point x="422" y="312" type="line"/>
      <point x="280" y="312" type="line"/>
      <point x="288" y="298"/>
      <point x="294" y="283"/>
      <point x="300" y="268" type="curve"/>
      <point x="422" y="268" type="line"/>
      <point x="422" y="226" type="line"/>
      <point x="312" y="226" type="line"/>
      <point x="315" y="212"/>
      <point x="317" y="198"/>
      <point x="317" y="181" type="curve" smooth="yes"/>
      <point x="317" y="150"/>
      <point x="312" y="121"/>
      <point x="303" y="96" type="curve"/>
      <point x="329" y="77"/>
      <point x="365" y="54"/>
      <point x="398" y="54" type="curve" smooth="yes"/>
      <point x="449" y="54"/>
      <point x="457" y="106"/>
      <point x="458" y="154" type="curve"/>
    </contour>
    <contour>
      <point x="219" y="78" type="curve"/>
      <point x="203" y="90"/>
      <point x="173" y="102"/>
      <point x="147" y="102" type="curve" smooth="yes"/>
      <point x="114" y="102"/>
      <point x="96" y="90"/>
      <point x="96" y="68" type="curve" smooth="yes"/>
      <point x="96" y="46"/>
      <point x="118" y="37"/>
      <point x="142" y="37" type="curve" smooth="yes"/>
      <point x="172" y="37"/>
      <point x="201" y="54"/>
    </contour>
  </outline>
</glyph>
<glyph name="yen" format="1">
  <advance width="622"/>
  <unicode hex="00A5"/>
  <outline>
    <contour>
      <point x="604" y="730" type="line"/>
      <point x="344" y="344" type="line"/>
      <point x="344" y="270" type="line"/>
      <point x="519" y="270" type="line"/>
      <point x="519" y="229" type="line"/>
      <point x="344" y="229" type="line"/>
      <point x="344" y="158" type="line"/>
      <point x="519" y="158" type="line"/>
      <point x="519" y="117" type="line"/>
      <point x="344" y="117" type="line"/>
      <point x="344" y="0" type="line"/>
      <point x="275" y="0" type="line"/>
      <point x="275" y="117" type="line"/>
      <point x="91" y="117" type="line"/>
      <point x="91" y="158" type="line"/>
      <point x="275" y="158" type="line"/>
      <point x="275" y="229" type="line"/>
      <point x="91" y="229" type="line"/>
      <point x="91" y="270" type="line"/>
      <point x="275" y="270" type="line"/>
      <point x="275" y="345" type="line"/>
      <point x="18" y="730" type="line"/>
      <point x="98" y="730" type="line"/>
      <point x="311" y="412" type="line"/>
      <point x="525" y="730" type="line"/>
    </contour>
  </outline>
</glyph>
<glyph name="brokenbar" format="1">
  <advance width="221"/>
  <unicode hex="00A6"/>
  <outline>
    <contour>
      <point x="78" y="351" type="line"/>
      <point x="78" y="730" type="line"/>
      <point x="143" y="730" type="line"/>
      <point x="143" y="351" type="line"/>
    </contour>
    <contour>
      <point x="143" y="200" type="line"/>
      <point x="143" y="-179" type="line"/>
      <point x="78" y="-179" type="line"/>
      <point x="78" y="200" type="line"/>
    </contour>
  </outline>
</glyph>
<glyph name="section" format="1">
  <advance width="650"/>
  <unicode hex="00A7"/>
  <outline>
    <contour>
      <point x="615" y="242" type="curve" smooth="yes"/>
      <point x="615" y="168"/>
      <point x="566" y="96"/>
      <point x="499" y="60" type="curve"/>
      <point x="525" y="37"/>
      <point x="541" y="5"/>
      <point x="541" y="-33" type="curve" smooth="yes"/>
      <point x="541" y="-132"/>
      <point x="460" y="-186"/>
      <point x="325" y="-186" type="curve" smooth="yes"/>
      <point x="237" y="-186"/>
      <point x="142" y="-150"/>
      <point x="94" y="-109" type="curve"/>
      <point x="132" y="-58" type="line"/>
      <point x="173" y="-93"/>
      <point x="253" y="-122"/>
      <point x="328" y="-122" type="curve" smooth="yes"/>
      <point x="428" y="-122"/>
      <point x="468" y="-84"/>
      <point x="468" y="-39" type="curve" smooth="yes"/>
      <point x="468" y="13"/>
      <point x="415" y="32"/>
      <point x="325" y="67" type="curve" smooth="yes"/>
      <point x="226" y="105" type="line" smooth="yes"/>
      <point x="118" y="146"/>
      <point x="32" y="202"/>
      <point x="32" y="315" type="curve" smooth="yes"/>
      <point x="32" y="388"/>
      <point x="81" y="460"/>
      <point x="148" y="496" type="curve"/>
      <point x="122" y="520"/>
      <point x="106" y="551"/>
      <point x="106" y="589" type="curve" smooth="yes"/>
      <point x="106" y="689"/>
      <point x="189" y="742"/>
      <point x="322" y="742" type="curve" smooth="yes"/>
      <point x="415" y="742"/>
      <point x="505" y="706"/>
      <point x="554" y="665" type="curve"/>
      <point x="515" y="614" type="line"/>
      <point x="475" y="649"/>
      <point x="398" y="678"/>
      <point x="319" y="678" type="curve" smooth="yes"/>
      <point x="219" y="678"/>
      <point x="180" y="641"/>
      <point x="180" y="596" type="curve" smooth="yes"/>
      <point x="180" y="543"/>
      <point x="232" y="523"/>
      <point x="322" y="489" type="curve" smooth="yes"/>
      <point x="421" y="451" type="line" smooth="yes"/>
      <point x="530" y="409"/>
      <point x="615" y="355"/>
    </contour>
    <contour>
      <point x="542" y="238" type="curve" smooth="yes"/>
      <point x="542" y="321"/>
      <point x="484" y="356"/>
      <point x="375" y="395" type="curve" smooth="yes"/>
      <point x="350" y="404"/>
      <point x="223" y="452"/>
      <point x="203" y="462" type="curve"/>
      <point x="144" y="434"/>
      <point x="105" y="382"/>
      <point x="105" y="318" type="curve" smooth="yes"/>
      <point x="105" y="235"/>
      <point x="164" y="202"/>
      <point x="272" y="162" type="curve" smooth="yes"/>
      <point x="297" y="153"/>
      <point x="424" y="105"/>
      <point x="444" y="94" type="curve"/>
      <point x="503" y="123"/>
      <point x="542" y="174"/>
    </contour>
  </outline>
</glyph>
<glyph name="dieresis" format="1">
  <advance width="467"/>
  <unicode hex="00A8"/>
  <outline>
    <contour>
      <point x="345" y="488" type="line"/>
      <point x="279" y="488" type="line"/>
      <point x="279" y="584" type="line"/>
      <point x="345" y="584" type="line"/>
    </contour>
    <contour>
      <point x="188" y="488" type="line"/>
      <point x="122" y="488" type="line"/>
      <point x="122" y="584" type="line"/>
      <point x="188" y="584" type="line"/>
    </contour>
  </outline>
</glyph>
<glyph name="copyright" format="1">
  <advance width="844"/>
  <unicode hex="00A9"/>
  <outline>
    <contour>
      <point x="799" y="365" type="curve" smooth="yes"/>
      <point x="799" y="157"/>
      <point x="630" y="-12"/>
      <point x="422" y="-12" type="curve" smooth="yes"/>
      <point x="214" y="-12"/>
      <point x="45" y="157"/>
      <point x="45" y="365" type="curve" smooth="yes"/>
      <point x="45" y="573"/>
      <point x="214" y="742"/>
      <point x="422" y="742" type="curve" smooth="yes"/>
      <point x="630" y="742"/>
      <point x="799" y="573"/>
    </contour>
    <contour>
      <point x="756" y="364" type="curve" smooth="yes"/>
      <point x="756" y="548"/>
      <point x="607" y="699"/>
      <point x="422" y="699" type="curve" smooth="yes"/>
      <point x="237" y="699"/>
      <point x="88" y="548"/>
      <point x="88" y="364" type="curve" smooth="yes"/>
      <point x="88" y="180"/>
      <point x="237" y="30"/>
      <point x="422" y="30" type="curve" smooth="yes"/>
      <point x="607" y="30"/>
      <point x="756" y="180"/>
    </contour>
    <contour>
      <point x="591" y="220" type="line"/>
      <point x="559" y="180"/>
      <point x="500" y="141"/>
      <point x="423" y="141" type="curve" smooth="yes"/>
      <point x="309" y="141"/>
      <point x="209" y="232"/>
      <point x="209" y="371" type="curve" smooth="yes"/>
      <point x="209" y="490"/>
      <point x="298" y="593"/>
      <point x="422" y="593" type="curve" smooth="yes"/>
      <point x="493" y="593"/>
      <point x="547" y="567"/>
      <point x="582" y="525" type="curve"/>
      <point x="545" y="492" type="line"/>
      <point x="515" y="525"/>
      <point x="476" y="543"/>
      <point x="425" y="543" type="curve" smooth="yes"/>
      <point x="330" y="543"/>
      <point x="262" y="468"/>
      <point x="262" y="372" type="curve" smooth="yes"/>
      <point x="262" y="263"/>
      <point x="339" y="191"/>
      <point x="423" y="191" type="curve" smooth="yes"/>
      <point x="476" y="191"/>
      <point x="518" y="212"/>
      <point x="555" y="251" type="curve"/>
    </contour>
  </outline>
</glyph>
<glyph name="ordfeminine" format="1">
  <advance width="430"/>
  <unicode hex="00AA"/>
  <outline>
    <contour>
      <point x="351" y="401" type="line"/>
      <point x="296" y="401" type="line"/>
      <point x="296" y="431" type="line"/>
      <point x="267" y="407"/>
      <point x="231" y="391"/>
      <point x="184" y="391" type="curve" smooth="yes"/>
      <point x="111" y="391"/>
      <point x="63" y="434"/>
      <point x="63" y="498" type="curve" smooth="yes"/>
      <point x="63" y="577"/>
      <point x="133" y="617"/>
      <point x="239" y="617" type="curve" smooth="yes"/>
      <point x="297" y="617" type="line"/>
      <point x="297" y="632" type="line" smooth="yes"/>
      <point x="297" y="681"/>
      <point x="265" y="694"/>
      <point x="218" y="694" type="curve" smooth="yes"/>
      <point x="177" y="694"/>
      <point x="145" y="687"/>
      <point x="117" y="673" type="curve"/>
      <point x="97" y="716" type="line"/>
      <point x="128" y="733"/>
      <point x="172" y="742"/>
      <point x="214" y="742" type="curve" smooth="yes"/>
      <point x="304" y="742"/>
      <point x="351" y="708"/>
      <point x="351" y="642" type="curve" smooth="yes"/>
    </contour>
    <contour>
      <point x="356" y="288" type="line"/>
      <point x="63" y="288" type="line"/>
      <point x="63" y="336" type="line"/>
      <point x="356" y="336" type="line"/>
    </contour>
    <contour>
      <point x="296" y="480" type="curve"/>
      <point x="296" y="570" type="line"/>
      <point x="253" y="570" type="line" smooth="yes"/>
      <point x="164" y="570"/>
      <point x="120" y="549"/>
      <point x="120" y="498" type="curve" smooth="yes"/>
      <point x="120" y="460"/>
      <point x="154" y="440"/>
      <point x="194" y="440" type="curve" smooth="yes"/>
      <point x="236" y="440"/>
      <point x="267" y="456"/>
    </contour>
  </outline>
</glyph>
<glyph name="guillemotleft" format="1">
  <advance width="352"/>
  <unicode hex="00AB"/>
  <outline>
    <contour>
      <point x="316" y="56" type="line"/>
      <point x="168" y="195" type="line"/>
      <point x="168" y="229" type="line"/>
      <point x="316" y="367" type="line"/>
      <point x="316" y="296" type="line"/>
      <point x="230" y="212" type="line"/>
      <point x="316" y="128" type="line"/>
    </contour>
    <contour>
      <point x="172" y="56" type="line"/>
      <point x="24" y="195" type="line"/>
      <point x="24" y="229" type="line"/>
      <point x="172" y="367" type="line"/>
      <point x="172" y="296" type="line"/>
      <point x="86" y="212" type="line"/>
      <point x="172" y="128" type="line"/>
    </contour>
  </outline>
</glyph>
<glyph name="degree" format="1">
  <advance width="402"/>
  <unicode hex="00B0"/>
  <outline>
    <contour>
      <point x="372" y="571" type="curve" smooth="yes"/>
      <point x="372" y="476"/>
      <point x="296" y="400"/>
      <point x="201" y="400" type="curve" smooth="yes"/>
      <point x="106" y="400"/>
      <point x="30" y="476"/>
      <point x="30" y="571" type="curve" smooth="yes"/>
      <point x="30" y="666"/>
      <point x="106" y="742"/>
      <point x="201" y="742" type="curve" smooth="yes"/>
      <point x="296" y="742"/>
      <point x="372" y="666"/>
    </contour>
    <contour>
      <point x="314" y="571" type="curve" smooth="yes"/>
      <point x="314" y="634"/>
      <point x="264" y="684"/>
      <point x="201" y="684" type="curve" smooth="yes"/>
      <point x="138" y="684"/>
      <point x="88" y="634"/>
      <point x="88" y="571" type="curve" smooth="yes"/>
      <point x="88" y="508"/>
      <point x="138" y="458"/>
      <point x="201" y="458" type="curve" smooth="yes"/>
      <point x="264" y="458"/>
      <point x="314" y="508"/>
    </contour>
  </outline>
</glyph>
<glyph name="twosuperior" format="1">
  <advance width="428"/>
  <unicode hex="00B2"/>
  <outline>
    <contour>
      <point x="278" y="619" type="curve" smooth="yes"/>
      <point x="278" y="659"/>
      <point x="245" y="682"/>
      <point x="213" y="682" type="curve" smooth="yes"/>
      <point x="174" y="682"/>
      <point x="150" y="654"/>
      <point x="145" y="610" type="curve"/>
      <point x="88" y="610" type="line"/>
      <point x="94" y="694"/>
      <point x="147" y="740"/>
      <point x="213" y="740" type="curve" smooth="yes"/>
      <point x="279" y="740"/>
      <point x="339" y="695"/>
      <point x="339" y="620" type="curve" smooth="yes"/>
      <point x="339" y="586"/>
      <point x="321" y="555"/>
      <point x="295" y="523" type="curve" smooth="yes"/>
      <point x="194" y="402" type="line"/>
      <point x="344" y="402" type="line"/>
      <point x="344" y="344" type="line"/>
      <point x="71" y="344" type="line"/>
      <point x="247" y="558" type="line" smooth="yes"/>
      <point x="268" y="583"/>
      <point x="278" y="599"/>
    </contour>
  </outline>
</glyph>
<glyph name="acute" format="1">
  <advance width="467"/>
  <unicode hex="00B4"/>
  <outline>
    <contour>
      <point x="311" y="626" type="line"/>
      <point x="223" y="488" type="line"/>
      <point x="155" y="488" type="line"/>
      <point x="241" y="626" type="line"/>
    </contour>
  </outline>
</glyph>
<glyph name="paragraph" format="1">
  <advance width="663"/>
  <unicode hex="00B6"/>
  <outline>
    <contour>
      <point x="590" y="-179" type="line"/>
      <point x="524" y="-179" type="line"/>
      <point x="524" y="669" type="line"/>
      <point x="440" y="669" type="line"/>
      <point x="440" y="-179" type="line"/>
      <point x="375" y="-179" type="line"/>
      <point x="375" y="247" type="line"/>
      <point x="272" y="247" type="line" smooth="yes"/>
      <point x="140" y="247"/>
      <point x="27" y="357"/>
      <point x="27" y="485" type="curve" smooth="yes"/>
      <point x="27" y="624"/>
      <point x="131" y="730"/>
      <point x="286" y="730" type="curve" smooth="yes"/>
      <point x="590" y="730" type="line"/>
    </contour>
    <contour>
      <point x="375" y="308" type="line"/>
      <point x="375" y="669" type="line"/>
      <point x="291" y="669" type="line" smooth="yes"/>
      <point x="175" y="669"/>
      <point x="98" y="593"/>
      <point x="98" y="491" type="curve" smooth="yes"/>
      <point x="98" y="385"/>
      <point x="177" y="308"/>
      <point x="291" y="308" type="curve" smooth="yes"/>
    </contour>
  </outline>
</glyph>
<glyph name="periodcentered" format="1">
  <advance width="178"/>
  <unicode hex="00B7"/>
  <outline>
    <contour>
      <point x="125" y="312" type="line"/>
      <point x="53" y="312" type="line"/>
      <point x="53" y="408" type="line"/>
      <point x="125" y="408" type="line"/>
    </contour>
  </outline>
</glyph>
<glyph name="cedilla" format="1">
  <advance width="467"/>
  <unicode hex="00B8"/>
  <outline>
    <contour>
      <point x="316" y="-103" type="curve" smooth="yes"/>
      <point x="316" y="-157"/>
      <point x="264" y="-179"/>
      <point x="213" y="-179" type="curve" smooth="yes"/>
      <point x="176" y="-179"/>
      <point x="141" y="-164"/>
      <point x="118" y="-147" type="curve"/>
      <point x="141" y="-119" type="line"/>
      <point x="158" y="-133"/>
      <point x="189" y="-142"/>
      <point x="214" y="-142" type="curve" smooth="yes"/>
      <point x="237" y="-142"/>
      <point x="258" y="-131"/>
      <point x="258" y="-109" type="curve" smooth="yes"/>
      <point x="258" y="-89"/>
      <point x="240" y="-77"/>
      <point x="213" y="-77" type="curve" smooth="yes"/>
      <point x="199" y="-77"/>
      <point x="187" y="-79"/>
      <point x="175" y="-84" type="curve"/>
      <point x="159" y="-65" type="line"/>
      <point x="220" y="13" type="line"/>
      <point x="274" y="13" type="line"/>
      <point x="229" y="-45" type="line"/>
      <point x="281" y="-42"/>
      <point x="316" y="-66"/>
    </contour>
  </outline>
</glyph>
<glyph name="ordmasculine" format="1">
  <advance width="476"/>
  <unicode hex="00BA"/>
  <outline>
    <contour>
      <point x="409" y="570" type="curve" smooth="yes"/>
      <point x="409" y="468"/>
      <point x="335" y="391"/>
      <point x="236" y="391" type="curve" smooth="yes"/>
      <point x="138" y="391"/>
      <point x="63" y="463"/>
      <point x="63" y="568" type="curve" smooth="yes"/>
      <point x="63" y="665"/>
      <point x="135" y="743"/>
      <point x="235" y="743" type="curve" smooth="yes"/>
      <point x="335" y="743"/>
      <point x="409" y="667"/>
    </contour>
    <contour>
      <point x="405" y="288" type="line"/>
      <point x="67" y="288" type="line"/>
      <point x="67" y="336" type="line"/>
      <point x="405" y="336" type="line"/>
    </contour>
    <contour>
      <point x="352" y="568" type="curve" smooth="yes"/>
      <point x="352" y="641"/>
      <point x="304" y="691"/>
      <point x="235" y="691" type="curve" smooth="yes"/>
      <point x="167" y="691"/>
      <point x="120" y="638"/>
      <point x="120" y="568" type="curve" smooth="yes"/>
      <point x="120" y="494"/>
      <point x="167" y="442"/>
      <point x="235" y="442" type="curve" smooth="yes"/>
      <point x="308" y="442"/>
      <point x="352" y="497"/>
    </contour>
  </outline>
</glyph>
<glyph name="guillemotright" format="1">
  <advance width="352"/>
  <unicode hex="00BB"/>
  <outline>
    <contour>
      <point x="328" y="194" type="line"/>
      <point x="180" y="56" type="line"/>
      <point x="180" y="127" type="line"/>
      <point x="266" y="211" type="line"/>
      <point x="180" y="295" type="line"/>
      <point x="180" y="367" type="line"/>
      <point x="328" y="228" type="line"/>
    </contour>
    <contour>
      <point x="184" y="194" type="line"/>
      <point x="36" y="56" type="line"/>
      <point x="36" y="127" type="line"/>
      <point x="122" y="211" type="line"/>
      <point x="36" y="295" type="line"/>
      <point x="36" y="367" type="line"/>
      <point x="184" y="228" type="line"/>
    </contour>
  </outline>
</glyph>
<glyph name="onequarter" format="1">
  <advance width="830"/>
  <unicode hex="00BC"/>
  <outline>
    <contour>
      <point x="142" y="335" type="line"/>
      <point x="142" y="636" type="line"/>
      <point x="129" y="621"/>
      <point x="100" y="611"/>
      <point x="73" y="608" type="curve"/>
      <point x="73" y="667" type="line"/>
      <point x="111" y="672"/>
      <point x="140" y="694"/>
      <point x="156" y="730" type="curve"/>
      <point x="201" y="730" type="line"/>
      <point x="201" y="335" type="line"/>
    </contour>
    <contour>
      <point x="683" y="730" type="line"/>
      <point x="184" y="0" type="line"/>
      <point x="115" y="0" type="line"/>
      <point x="614" y="730" type="line"/>
    </contour>
    <contour>
      <point x="692" y="93" type="line"/>
      <point x="692" y="0" type="line"/>
      <point x="633" y="0" type="line"/>
      <point x="633" y="93" type="line"/>
      <point x="467" y="93" type="line"/>
      <point x="467" y="134" type="line"/>
      <point x="648" y="391" type="line"/>
      <point x="692" y="391" type="line"/>
      <point x="692" y="149" type="line"/>
      <point x="747" y="149" type="line"/>
      <point x="747" y="93" type="line"/>
    </contour>
    <contour>
      <point x="633" y="275" type="line"/>
      <point x="545" y="149" type="line"/>
      <point x="633" y="149" type="line"/>
    </contour>
  </outline>
</glyph>
<glyph name="onehalf" format="1">
  <advance width="864"/>
  <unicode hex="00BD"/>
  <outline>
    <contour>
      <point x="142" y="335" type="line"/>
      <point x="142" y="636" type="line"/>
      <point x="129" y="621"/>
      <point x="100" y="611"/>
      <point x="73" y="608" type="curve"/>
      <point x="73" y="667" type="line"/>
      <point x="111" y="672"/>
      <point x="140" y="694"/>
      <point x="156" y="730" type="curve"/>
      <point x="201" y="730" type="line"/>
      <point x="201" y="335" type="line"/>
    </contour>
    <contour>
      <point x="683" y="730" type="line"/>
      <point x="184" y="0" type="line"/>
      <point x="115" y="0" type="line"/>
      <point x="614" y="730" type="line"/>
    </contour>
    <contour>
      <point x="716" y="275" type="curve" smooth="yes"/>
      <point x="716" y="315"/>
      <point x="683" y="338"/>
      <point x="651" y="338" type="curve" smooth="yes"/>
      <point x="612" y="338"/>
      <point x="588" y="310"/>
      <point x="583" y="266" type="curve"/>
      <point x="526" y="266" type="line"/>
      <point x="532" y="350"/>
      <point x="585" y="396"/>
      <point x="651" y="396" type="curve" smooth="yes"/>
      <point x="717" y="396"/>
      <point x="777" y="351"/>
      <point x="777" y="276" type="curve" smooth="yes"/>
      <point x="777" y="242"/>
      <point x="759" y="211"/>
      <point x="733" y="179" type="curve" smooth="yes"/>
      <point x="632" y="58" type="line"/>
      <point x="782" y="58" type="line"/>
      <point x="782" y="0" type="line"/>
      <point x="509" y="0" type="line"/>
      <point x="685" y="214" type="line" smooth="yes"/>
      <point x="706" y="239"/>
      <point x="716" y="255"/>
    </contour>
  </outline>
</glyph>
<glyph name="threequarters" format="1">
  <advance width="880"/>
  <unicode hex="00BE"/>
  <outline>
    <contour>
      <point x="217" y="328" type="curve" smooth="yes"/>
      <point x="158" y="328"/>
      <point x="109" y="352"/>
      <point x="75" y="389" type="curve"/>
      <point x="114" y="433" type="line"/>
      <point x="145" y="399"/>
      <point x="178" y="384"/>
      <point x="217" y="384" type="curve" smooth="yes"/>
      <point x="266" y="384"/>
      <point x="296" y="414"/>
      <point x="296" y="453" type="curve" smooth="yes"/>
      <point x="296" y="497"/>
      <point x="263" y="520"/>
      <point x="215" y="520" type="curve" smooth="yes"/>
      <point x="167" y="520" type="line"/>
      <point x="167" y="573" type="line"/>
      <point x="215" y="573" type="line" smooth="yes"/>
      <point x="254" y="573"/>
      <point x="283" y="594"/>
      <point x="283" y="631" type="curve" smooth="yes"/>
      <point x="283" y="658"/>
      <point x="261" y="683"/>
      <point x="222" y="683" type="curve" smooth="yes"/>
      <point x="185" y="683"/>
      <point x="156" y="667"/>
      <point x="140" y="637" type="curve"/>
      <point x="91" y="664" type="line"/>
      <point x="109" y="699"/>
      <point x="154" y="740"/>
      <point x="223" y="740" type="curve" smooth="yes"/>
      <point x="306" y="740"/>
      <point x="343" y="686"/>
      <point x="343" y="632" type="curve" smooth="yes"/>
      <point x="343" y="595"/>
      <point x="326" y="561"/>
      <point x="293" y="550" type="curve"/>
      <point x="332" y="541"/>
      <point x="356" y="497"/>
      <point x="356" y="454" type="curve" smooth="yes"/>
      <point x="356" y="390"/>
      <point x="315" y="328"/>
    </contour>
    <contour>
      <point x="764" y="730" type="line"/>
      <point x="265" y="0" type="line"/>
      <point x="196" y="0" type="line"/>
      <point x="695" y="730" type="line"/>
    </contour>
    <contour>
      <point x="752" y="93" type="line"/>
      <point x="752" y="0" type="line"/>
      <point x="693" y="0" type="line"/>
      <point x="693" y="93" type="line"/>
      <point x="527" y="93" type="line"/>
      <point x="527" y="134" type="line"/>
      <point x="708" y="391" type="line"/>
      <point x="752" y="391" type="line"/>
      <point x="752" y="149" type="line"/>
      <point x="807" y="149" type="line"/>
      <point x="807" y="93" type="line"/>
    </contour>
    <contour>
      <point x="693" y="275" type="line"/>
      <point x="605" y="149" type="line"/>
      <point x="693" y="149" type="line"/>
    </contour>
  </outline>
</glyph>
<glyph name="questiondown" format="1">
  <advance width="439"/>
  <unicode hex="00BF"/>
  <outline>
    <contour>
      <point x="276" y="634" type="line"/>
      <point x="205" y="634" type="line"/>
      <point x="205" y="730" type="line"/>
      <point x="276" y="730" type="line"/>
    </contour>
    <contour>
      <point x="414" y="86" type="line"/>
      <point x="370" y="20"/>
      <point x="308" y="-12"/>
      <point x="231" y="-12" type="curve" smooth="yes"/>
      <point x="114" y="-12"/>
      <point x="38" y="67"/>
      <point x="38" y="172" type="curve" smooth="yes"/>
      <point x="38" y="257"/>
      <point x="87" y="315"/>
      <point x="132" y="377" type="curve" smooth="yes"/>
      <point x="171" y="431"/>
      <point x="206" y="493"/>
      <point x="206" y="562" type="curve" smooth="yes"/>
      <point x="206" y="586" type="line"/>
      <point x="275" y="586" type="line"/>
      <point x="275" y="564" type="line" smooth="yes"/>
      <point x="275" y="470"/>
      <point x="227" y="402"/>
      <point x="183" y="340" type="curve" smooth="yes"/>
      <point x="144" y="285"/>
      <point x="109" y="238"/>
      <point x="109" y="178" type="curve" smooth="yes"/>
      <point x="109" y="108"/>
      <point x="159" y="50"/>
      <point x="231" y="50" type="curve" smooth="yes"/>
      <point x="289" y="50"/>
      <point x="335" y="81"/>
      <point x="365" y="130" type="curve"/>
    </contour>
  </outline>
</glyph>
<glyph name="Adieresis" format="1">
  <advance width="668"/>
  <unicode hex="00C4"/>
  <outline>
    <contour>
      <point x="535" y="634" type="line"/>
      <point x="469" y="634" type="line"/>
      <point x="469" y="730" type="line"/>
      <point x="535" y="730" type="line"/>
    </contour>
    <contour>
      <point x="179" y="634" type="line"/>
      <point x="113" y="634" type="line"/>
      <point x="113" y="730" type="line"/>
      <point x="179" y="730" type="line"/>
    </contour>
    <contour>
      <point x="621" y="0" type="line"/>
      <point x="544" y="0" type="line"/>
      <point x="450" y="260" type="line"/>
      <point x="196" y="260" type="line"/>
      <point x="102" y="0" type="line"/>
      <point x="28" y="0" type="line"/>
      <point x="303" y="737" type="line"/>
      <point x="345" y="737" type="line"/>
    </contour>
    <contour>
      <point x="426" y="324" type="line"/>
      <point x="323" y="614" type="line"/>
      <point x="220" y="324" type="line"/>
    </contour>
  </outline>
</glyph>
<glyph name="Aring" format="1">
  <advance width="668"/>
  <unicode hex="00C5"/>
  <outline>
    <contour>
      <point x="621" y="0" type="line"/>
      <point x="544" y="0" type="line"/>
      <point x="450" y="260" type="line"/>
      <point x="196" y="260" type="line"/>
      <point x="102" y="0" type="line"/>
      <point x="28" y="0" type="line"/>
      <point x="289" y="700" type="line"/>
      <point x="249" y="714"/>
      <point x="220" y="751"/>
      <point x="220" y="797" type="curve" smooth="yes"/>
      <point x="220" y="854"/>
      <point x="266" y="901"/>
      <point x="324" y="901" type="curve" smooth="yes"/>
      <point x="381" y="901"/>
      <point x="428" y="854"/>
      <point x="428" y="797" type="curve" smooth="yes"/>
      <point x="428" y="752"/>
      <point x="399" y="714"/>
      <point x="359" y="700" type="curve"/>
    </contour>
    <contour>
      <point x="381" y="797" type="curve" smooth="yes"/>
      <point x="381" y="829"/>
      <point x="356" y="854"/>
      <point x="324" y="854" type="curve" smooth="yes"/>
      <point x="292" y="854"/>
      <point x="267" y="829"/>
      <point x="267" y="797" type="curve" smooth="yes"/>
      <point x="267" y="765"/>
      <point x="292" y="740"/>
      <point x="324" y="740" type="curve" smooth="yes"/>
      <point x="356" y="740"/>
      <point x="381" y="765"/>
    </contour>
    <contour>
      <point x="426" y="324" type="line"/>
      <point x="323" y="614" type="line"/>
      <point x="220" y="324" type="line"/>
    </contour>
  </outline>
</glyph>
<glyph name="AE" format="1">
  <advance width="933"/>
  <unicode hex="00C6"/>
  <outline>
    <contour>
      <point x="882" y="0" type="line"/>
      <point x="477" y="0" type="line"/>
      <point x="477" y="238" type="line"/>
      <point x="231" y="238" type="line"/>
      <point x="84" y="0" type="line"/>
      <point x="8" y="0" type="line"/>
      <point x="458" y="730" type="line"/>
      <point x="863" y="730" type="line"/>
      <point x="863" y="666" type="line"/>
      <point x="547" y="666" type="line"/>
      <point x="547" y="404" type="line"/>
      <point x="843" y="404" type="line"/>
      <point x="843" y="340" type="line"/>
      <point x="547" y="340" type="line"/>
      <point x="547" y="64" type="line"/>
      <point x="882" y="64" type="line"/>
    </contour>
    <contour>
      <point x="477" y="302" type="line"/>
      <point x="477" y="647" type="line"/>
      <point x="272" y="302" type="line"/>
    </contour>
  </outline>
</glyph>
<glyph name="Ccedilla" format="1">
  <advance width="721"/>
  <unicode hex="00C7"/>
  <outline>
    <contour>
      <point x="681" y="121" type="line"/>
      <point x="631" y="56"/>
      <point x="543" y="-5"/>
      <point x="423" y="-11" type="curve"/>
      <point x="397" y="-45" type="line"/>
      <point x="449" y="-42"/>
      <point x="484" y="-66"/>
      <point x="484" y="-103" type="curve" smooth="yes"/>
      <point x="484" y="-157"/>
      <point x="432" y="-179"/>
      <point x="381" y="-179" type="curve" smooth="yes"/>
      <point x="345" y="-179"/>
      <point x="310" y="-164"/>
      <point x="287" y="-147" type="curve"/>
      <point x="309" y="-119" type="line"/>
      <point x="326" y="-133"/>
      <point x="357" y="-142"/>
      <point x="382" y="-142" type="curve" smooth="yes"/>
      <point x="406" y="-142"/>
      <point x="426" y="-131"/>
      <point x="426" y="-109" type="curve" smooth="yes"/>
      <point x="426" y="-89"/>
      <point x="409" y="-77"/>
      <point x="381" y="-77" type="curve" smooth="yes"/>
      <point x="367" y="-77"/>
      <point x="355" y="-79"/>
      <point x="343" y="-84" type="curve"/>
      <point x="327" y="-65" type="line"/>
      <point x="370" y="-11" type="line"/>
      <point x="194" y="5"/>
      <point x="45" y="155"/>
      <point x="45" y="365" type="curve" smooth="yes"/>
      <point x="45" y="569"/>
      <point x="198" y="742"/>
      <point x="402" y="742" type="curve" smooth="yes"/>
      <point x="521" y="742"/>
      <point x="609" y="698"/>
      <point x="667" y="627" type="curve"/>
      <point x="616" y="582" type="line"/>
      <point x="563" y="640"/>
      <point x="492" y="675"/>
      <point x="402" y="675" type="curve" smooth="yes"/>
      <point x="240" y="675"/>
      <point x="118" y="538"/>
      <point x="118" y="368" type="curve" smooth="yes"/>
      <point x="118" y="178"/>
      <point x="255" y="55"/>
      <point x="402" y="55" type="curve" smooth="yes"/>
      <point x="495" y="55"/>
      <point x="568" y="93"/>
      <point x="631" y="163" type="curve"/>
    </contour>
  </outline>
</glyph>
<glyph name="Eth" format="1">
  <advance width="696"/>
  <unicode hex="00D0"/>
  <outline>
    <contour>
      <point x="651" y="370" type="curve" smooth="yes"/>
      <point x="651" y="150"/>
      <point x="490" y="0"/>
      <point x="263" y="0" type="curve" smooth="yes"/>
      <point x="101" y="0" type="line"/>
      <point x="101" y="338" type="line"/>
      <point x="37" y="338" type="line"/>
      <point x="37" y="402" type="line"/>
      <point x="101" y="402" type="line"/>
      <point x="101" y="730" type="line"/>
      <point x="267" y="730" type="line" smooth="yes"/>
      <point x="493" y="730"/>
      <point x="651" y="587"/>
    </contour>
    <contour>
      <point x="579" y="369" type="curve" smooth="yes"/>
      <point x="579" y="546"/>
      <point x="451" y="668"/>
      <point x="273" y="668" type="curve" smooth="yes"/>
      <point x="171" y="668" type="line"/>
      <point x="171" y="402" type="line"/>
      <point x="339" y="402" type="line"/>
      <point x="339" y="338" type="line"/>
      <point x="171" y="338" type="line"/>
      <point x="171" y="62" type="line"/>
      <point x="264" y="62" type="line" smooth="yes"/>
      <point x="461" y="62"/>
      <point x="579" y="198"/>
    </contour>
  </outline>
</glyph>
<glyph name="multiply" format="1">
  <advance width="483"/>
  <unicode hex="00D7"/>
  <outline>
    <contour>
      <point x="100" y="142" type="line"/>
      <point x="54" y="188" type="line"/>
      <point x="195" y="329" type="line"/>
      <point x="54" y="470" type="line"/>
      <point x="100" y="516" type="line"/>
      <point x="241" y="375" type="line"/>
      <point x="382" y="516" type="line"/>
      <point x="428" y="470" type="line"/>
      <point x="287" y="329" type="line"/>
      <point x="428" y="188" type="line"/>
      <point x="382" y="142" type="line"/>
      <point x="241" y="283" type="line"/>
    </contour>
  </outline>
</glyph>
<glyph name="Oslash" format="1">
  <advance width="823"/>
  <unicode hex="00D8"/>
  <outline>
    <contour>
      <point x="778" y="366" type="curve" smooth="yes"/>
      <point x="778" y="153"/>
      <point x="616" y="-12"/>
      <point x="412" y="-12" type="curve" smooth="yes"/>
      <point x="320" y="-12"/>
      <point x="236" y="20"/>
      <point x="172" y="76" type="curve"/>
      <point x="95" y="-7" type="line"/>
      <point x="56" y="29" type="line"/>
      <point x="135" y="114" type="line"/>
      <point x="79" y="180"/>
      <point x="45" y="268"/>
      <point x="45" y="366" type="curve" smooth="yes"/>
      <point x="45" y="579"/>
      <point x="204" y="742"/>
      <point x="410" y="742" type="curve" smooth="yes"/>
      <point x="502" y="742"/>
      <point x="583" y="711"/>
      <point x="646" y="659" type="curve"/>
      <point x="723" y="742" type="line"/>
      <point x="763" y="707" type="line"/>
      <point x="683" y="622" type="line"/>
      <point x="743" y="556"/>
      <point x="778" y="467"/>
    </contour>
    <contour>
      <point x="597" y="609" type="line"/>
      <point x="548" y="651"/>
      <point x="484" y="675"/>
      <point x="410" y="675" type="curve" smooth="yes"/>
      <point x="242" y="675"/>
      <point x="118" y="542"/>
      <point x="118" y="366" type="curve" smooth="yes"/>
      <point x="118" y="288"/>
      <point x="143" y="219"/>
      <point x="185" y="167" type="curve"/>
    </contour>
    <contour>
      <point x="705" y="367" type="curve" smooth="yes"/>
      <point x="705" y="447"/>
      <point x="679" y="518"/>
      <point x="635" y="572" type="curve"/>
      <point x="221" y="128" type="line"/>
      <point x="273" y="82"/>
      <point x="340" y="55"/>
      <point x="412" y="55" type="curve" smooth="yes"/>
      <point x="574" y="55"/>
      <point x="705" y="184"/>
    </contour>
  </outline>
</glyph>
<glyph name="Udieresis" format="1">
  <advance width="689"/>
  <unicode hex="00DC"/>
  <outline>
    <contour>
      <point x="455" y="634" type="line"/>
      <point x="389" y="634" type="line"/>
      <point x="389" y="730" type="line"/>
      <point x="455" y="730" type="line"/>
    </contour>
    <contour>
      <point x="300" y="634" type="line"/>
      <point x="234" y="634" type="line"/>
      <point x="234" y="730" type="line"/>
      <point x="300" y="730" type="line"/>
    </contour>
    <contour>
      <point x="616" y="270" type="line" smooth="yes"/>
      <point x="616" y="100"/>
      <point x="497" y="-12"/>
      <point x="344" y="-12" type="curve" smooth="yes"/>
      <point x="189" y="-12"/>
      <point x="73" y="97"/>
      <point x="73" y="270" type="curve" smooth="yes"/>
      <point x="73" y="730" type="line"/>
      <point x="143" y="730" type="line"/>
      <point x="143" y="270" type="line" smooth="yes"/>
      <point x="143" y="133"/>
      <point x="235" y="53"/>
      <point x="344" y="53" type="curve" smooth="yes"/>
      <point x="452" y="53"/>
      <point x="547" y="133"/>
      <point x="547" y="270" type="curve" smooth="yes"/>
      <point x="547" y="730" type="line"/>
      <point x="616" y="730" type="line"/>
    </contour>
  </outline>
</glyph>
<glyph name="Thorn" format="1">
  <advance width="540"/>
  <unicode hex="00DE"/>
  <outline>
    <contour>
      <point x="505" y="380" type="curve" smooth="yes"/>
      <point x="505" y="259"/>
      <point x="413" y="164"/>
      <point x="273" y="164" type="curve" smooth="yes"/>
      <point x="147" y="164" type="line"/>
      <point x="147" y="0" type="line"/>
      <point x="78" y="0" type="line"/>
      <point x="78" y="730" type="line"/>
      <point x="147" y="730" type="line"/>
      <point x="147" y="590" type="line"/>
      <point x="264" y="590" type="line" smooth="yes"/>
      <point x="420" y="590"/>
      <point x="505" y="500"/>
    </contour>
    <contour>
      <point x="433" y="381" type="curve" smooth="yes"/>
      <point x="433" y="472"/>
      <point x="374" y="526"/>
      <point x="253" y="526" type="curve" smooth="yes"/>
      <point x="147" y="526" type="line"/>
      <point x="147" y="228" type="line"/>
      <point x="266" y="228" type="line" smooth="yes"/>
      <point x="377" y="228"/>
      <point x="433" y="292"/>
    </contour>
  </outline>
</glyph>
<glyph name="germandbls" format="1">
  <advance width="459"/>
  <unicode hex="00DF"/>
  <outline>
    <contour>
      <point x="426" y="174" type="curve" smooth="yes"/>
      <point x="426" y="72"/>
      <point x="364" y="-12"/>
      <point x="264" y="-12" type="curve" smooth="yes"/>
      <point x="229" y="-12"/>
      <point x="202" y="-5"/>
      <point x="183" y="6" type="curve"/>
      <point x="193" y="63" type="line"/>
      <point x="210" y="53"/>
      <point x="231" y="48"/>
      <point x="260" y="48" type="curve" smooth="yes"/>
      <point x="318" y="48"/>
      <point x="358" y="97"/>
      <point x="358" y="171" type="curve" smooth="yes"/>
      <point x="358" y="296"/>
      <point x="270" y="383"/>
      <point x="192" y="398" type="curve"/>
      <point x="192" y="445" type="line"/>
      <point x="196" y="445" type="line" smooth="yes"/>
      <point x="259" y="445"/>
      <point x="330" y="493"/>
      <point x="330" y="578" type="curve" smooth="yes"/>
      <point x="330" y="645"/>
      <point x="291" y="686"/>
      <point x="225" y="686" type="curve" smooth="yes"/>
      <point x="166" y="686"/>
      <point x="128" y="642"/>
      <point x="128" y="567" type="curve" smooth="yes"/>
      <point x="128" y="0" type="line"/>
      <point x="63" y="0" type="line"/>
      <point x="63" y="563" type="line" smooth="yes"/>
      <point x="63" y="671"/>
      <point x="118" y="742"/>
      <point x="226" y="742" type="curve" smooth="yes"/>
      <point x="323" y="742"/>
      <point x="395" y="685"/>
      <point x="395" y="581" type="curve" smooth="yes"/>
      <point x="395" y="503"/>
      <point x="349" y="442"/>
      <point x="280" y="418" type="curve"/>
      <point x="354" y="386"/>
      <point x="426" y="286"/>
    </contour>
  </outline>
</glyph>
<glyph name="ae" format="1">
  <advance width="744"/>
  <unicode hex="00E6"/>
  <outline>
    <contour>
      <point x="714" y="202" type="curve"/>
      <point x="388" y="202" type="line"/>
      <point x="389" y="116"/>
      <point x="442" y="47"/>
      <point x="532" y="47" type="curve" smooth="yes"/>
      <point x="594" y="47"/>
      <point x="629" y="68"/>
      <point x="665" y="103" type="curve"/>
      <point x="706" y="63" type="line"/>
      <point x="667" y="24"/>
      <point x="614" y="-12"/>
      <point x="530" y="-12" type="curve" smooth="yes"/>
      <point x="454" y="-12"/>
      <point x="397" y="24"/>
      <point x="365" y="75" type="curve"/>
      <point x="323" y="22"/>
      <point x="260" y="-12"/>
      <point x="182" y="-12" type="curve" smooth="yes"/>
      <point x="91" y="-12"/>
      <point x="33" y="41"/>
      <point x="33" y="120" type="curve" smooth="yes"/>
      <point x="33" y="212"/>
      <point x="115" y="254"/>
      <point x="240" y="254" type="curve" smooth="yes"/>
      <point x="325" y="254" type="line"/>
      <point x="325" y="273" type="line" smooth="yes"/>
      <point x="325" y="345"/>
      <point x="282" y="363"/>
      <point x="223" y="363" type="curve" smooth="yes"/>
      <point x="173" y="363"/>
      <point x="133" y="355"/>
      <point x="99" y="337" type="curve"/>
      <point x="75" y="387" type="line"/>
      <point x="112" y="409"/>
      <point x="167" y="420"/>
      <point x="218" y="420" type="curve" smooth="yes"/>
      <point x="304" y="420"/>
      <point x="355" y="393"/>
      <point x="371" y="344" type="curve"/>
      <point x="402" y="390"/>
      <point x="458" y="420"/>
      <point x="524" y="420" type="curve" smooth="yes"/>
      <point x="649" y="420"/>
      <point x="711" y="319"/>
    </contour>
    <contour>
      <point x="640" y="254" type="line"/>
      <point x="631" y="309"/>
      <point x="594" y="361"/>
      <point x="521" y="361" type="curve" smooth="yes"/>
      <point x="447" y="361"/>
      <point x="402" y="314"/>
      <point x="391" y="254" type="curve"/>
    </contour>
    <contour>
      <point x="334" y="149" type="curve"/>
      <point x="328" y="165"/>
      <point x="325" y="182"/>
      <point x="325" y="202" type="curve"/>
      <point x="257" y="202" type="line" smooth="yes"/>
      <point x="153" y="202"/>
      <point x="99" y="180"/>
      <point x="99" y="120" type="curve" smooth="yes"/>
      <point x="99" y="71"/>
      <point x="141" y="45"/>
      <point x="190" y="45" type="curve" smooth="yes"/>
      <point x="253" y="45"/>
      <point x="318" y="85"/>
    </contour>
  </outline>
</glyph>
<glyph name="ccedilla" format="1">
  <advance width="442"/>
  <unicode hex="00E7"/>
  <outline>
    <contour>
      <point x="419" y="88" type="line"/>
      <point x="385" y="38"/>
      <point x="331" y="-3"/>
      <point x="265" y="-11" type="curve"/>
      <point x="239" y="-45" type="line"/>
      <point x="290" y="-42"/>
      <point x="325" y="-66"/>
      <point x="325" y="-103" type="curve" smooth="yes"/>
      <point x="325" y="-157"/>
      <point x="273" y="-179"/>
      <point x="222" y="-179" type="curve" smooth="yes"/>
      <point x="186" y="-179"/>
      <point x="151" y="-164"/>
      <point x="128" y="-147" type="curve"/>
      <point x="150" y="-119" type="line"/>
      <point x="167" y="-133"/>
      <point x="198" y="-142"/>
      <point x="223" y="-142" type="curve" smooth="yes"/>
      <point x="247" y="-142"/>
      <point x="267" y="-131"/>
      <point x="267" y="-109" type="curve" smooth="yes"/>
      <point x="267" y="-89"/>
      <point x="250" y="-77"/>
      <point x="222" y="-77" type="curve" smooth="yes"/>
      <point x="208" y="-77"/>
      <point x="196" y="-79"/>
      <point x="184" y="-84" type="curve"/>
      <point x="168" y="-65" type="line"/>
      <point x="211" y="-10" type="line"/>
      <point x="102" y="4"/>
      <point x="34" y="93"/>
      <point x="34" y="205" type="curve" smooth="yes"/>
      <point x="34" y="322"/>
      <point x="119" y="420"/>
      <point x="236" y="420" type="curve" smooth="yes"/>
      <point x="327" y="420"/>
      <point x="382" y="372"/>
      <point x="411" y="334" type="curve"/>
      <point x="362" y="296" type="line"/>
      <point x="335" y="331"/>
      <point x="297" y="359"/>
      <point x="240" y="359" type="curve" smooth="yes"/>
      <point x="156" y="359"/>
      <point x="101" y="287"/>
      <point x="101" y="208" type="curve" smooth="yes"/>
      <point x="101" y="115"/>
      <point x="159" y="48"/>
      <point x="239" y="48" type="curve" smooth="yes"/>
      <point x="297" y="48"/>
      <point x="338" y="77"/>
      <point x="372" y="123" type="curve"/>
    </contour>
  </outline>
</glyph>
<glyph name="eth" format="1">
  <advance width="499"/>
  <unicode hex="00F0"/>
  <outline>
    <contour>
      <point x="465" y="212" type="curve" smooth="yes"/>
      <point x="465" y="109"/>
      <point x="397" y="-12"/>
      <point x="246" y="-12" type="curve" smooth="yes"/>
      <point x="127" y="-12"/>
      <point x="34" y="75"/>
      <point x="34" y="211" type="curve" smooth="yes"/>
      <point x="34" y="323"/>
      <point x="126" y="420"/>
      <point x="248" y="420" type="curve" smooth="yes"/>
      <point x="302" y="420"/>
      <point x="349" y="400"/>
      <point x="381" y="361" type="curve"/>
      <point x="371" y="416"/>
      <point x="338" y="500"/>
      <point x="279" y="580" type="curve"/>
      <point x="158" y="531" type="line"/>
      <point x="134" y="579" type="line"/>
      <point x="246" y="624" type="line"/>
      <point x="218" y="657"/>
      <point x="187" y="689"/>
      <point x="152" y="717" type="curve"/>
      <point x="184" y="749" type="line"/>
      <point x="227" y="719"/>
      <point x="265" y="684"/>
      <point x="298" y="645" type="curve"/>
      <point x="371" y="675" type="line"/>
      <point x="394" y="627" type="line"/>
      <point x="333" y="602" type="line"/>
      <point x="420" y="483"/>
      <point x="465" y="339"/>
    </contour>
    <contour>
      <point x="397" y="205" type="curve" smooth="yes"/>
      <point x="397" y="297"/>
      <point x="334" y="359"/>
      <point x="248" y="359" type="curve" smooth="yes"/>
      <point x="162" y="359"/>
      <point x="101" y="293"/>
      <point x="101" y="205" type="curve" smooth="yes"/>
      <point x="101" y="113"/>
      <point x="162" y="48"/>
      <point x="247" y="48" type="curve" smooth="yes"/>
      <point x="339" y="48"/>
      <point x="397" y="115"/>
    </contour>
  </outline>
</glyph>
<glyph name="oslash" format="1">
  <advance width="493"/>
  <unicode hex="00F8"/>
  <outline>
    <contour>
      <point x="466" y="388" type="line"/>
      <point x="416" y="338" type="line"/>
      <point x="443" y="302"/>
      <point x="459" y="257"/>
      <point x="459" y="207" type="curve" smooth="yes"/>
      <point x="459" y="82"/>
      <point x="367" y="-12"/>
      <point x="246" y="-12" type="curve" smooth="yes"/>
      <point x="194" y="-12"/>
      <point x="148" y="4"/>
      <point x="112" y="33" type="curve"/>
      <point x="68" y="-12" type="line"/>
      <point x="35" y="21" type="line"/>
      <point x="80" y="66" type="line"/>
      <point x="51" y="102"/>
      <point x="34" y="149"/>
      <point x="34" y="205" type="curve" smooth="yes"/>
      <point x="34" y="325"/>
      <point x="122" y="420"/>
      <point x="245" y="420" type="curve" smooth="yes"/>
      <point x="299" y="420"/>
      <point x="347" y="402"/>
      <point x="384" y="371" type="curve"/>
      <point x="432" y="420" type="line"/>
    </contour>
    <contour>
      <point x="339" y="327" type="line"/>
      <point x="314" y="348"/>
      <point x="282" y="359"/>
      <point x="245" y="359" type="curve" smooth="yes"/>
      <point x="160" y="359"/>
      <point x="101" y="293"/>
      <point x="101" y="205" type="curve" smooth="yes"/>
      <point x="101" y="170"/>
      <point x="111" y="138"/>
      <point x="127" y="113" type="curve"/>
    </contour>
    <contour>
      <point x="392" y="205" type="curve" smooth="yes"/>
      <point x="392" y="238"/>
      <point x="383" y="267"/>
      <point x="369" y="290" type="curve"/>
      <point x="157" y="77" type="line"/>
      <point x="180" y="59"/>
      <point x="210" y="48"/>
      <point x="245" y="48" type="curve" smooth="yes"/>
      <point x="336" y="48"/>
      <point x="392" y="115"/>
    </contour>
  </outline>
</glyph>
<glyph name="thorn" format="1">
  <advance width="489"/>
  <unicode hex="00FE"/>
  <outline>
    <contour>
      <point x="455" y="208" type="curve" smooth="yes"/>
      <point x="455" y="79"/>
      <point x="371" y="-12"/>
      <point x="264" y="-12" type="curve" smooth="yes"/>
      <point x="199" y="-12"/>
      <point x="150" y="28"/>
      <point x="128" y="68" type="curve"/>
      <point x="128" y="-179" type="line"/>
      <point x="63" y="-179" type="line"/>
      <point x="63" y="730" type="line"/>
      <point x="128" y="730" type="line"/>
      <point x="128" y="340" type="line"/>
      <point x="154" y="384"/>
      <point x="207" y="420"/>
      <point x="269" y="420" type="curve" smooth="yes"/>
      <point x="382" y="420"/>
      <point x="455" y="324"/>
    </contour>
    <contour>
      <point x="388" y="204" type="curve" smooth="yes"/>
      <point x="388" y="287"/>
      <point x="344" y="359"/>
      <point x="258" y="359" type="curve" smooth="yes"/>
      <point x="180" y="359"/>
      <point x="124" y="288"/>
      <point x="124" y="204" type="curve" smooth="yes"/>
      <point x="124" y="126"/>
      <point x="178" y="48"/>
      <point x="256" y="48" type="curve" smooth="yes"/>
      <point x="338" y="48"/>
      <point x="388" y="112"/>
    </contour>
  </outline>
</glyph>
<glyph name="dotlessi" format="1">
  <advance width="191"/>
  <unicode hex="0131"/>
  <outline>
    <contour>
      <point x="128" y="0" type="line"/>
      <point x="63" y="0" type="line"/>
      <point x="63" y="408" type="line"/>
      <point x="128" y="408" type="line"/>
    </contour>
  </outline>
</glyph>
<glyph name="Lslash" format="1">
  <advance width="501"/>
  <unicode hex="0141"/>
  <outline>
    <contour>
      <point x="474" y="0" type="line"/>
      <point x="97" y="0" type="line"/>
      <point x="97" y="289" type="line"/>
      <point x="50" y="270" type="line"/>
      <point x="24" y="328" type="line"/>
      <point x="97" y="358" type="line"/>
      <point x="97" y="730" type="line"/>
      <point x="166" y="730" type="line"/>
      <point x="166" y="386" type="line"/>
      <point x="320" y="448" type="line"/>
      <point x="346" y="389" type="line"/>
      <point x="166" y="317" type="line"/>
      <point x="166" y="64" type="line"/>
      <point x="474" y="64" type="line"/>
    </contour>
  </outline>
</glyph>
<glyph name="lslash" format="1">
  <advance width="247"/>
  <unicode hex="0142"/>
  <outline>
    <contour>
      <point x="233" y="353" type="line"/>
      <point x="154" y="321" type="line"/>
      <point x="154" y="0" type="line"/>
      <point x="89" y="0" type="line"/>
      <point x="89" y="295" type="line"/>
      <point x="38" y="274" type="line"/>
      <point x="13" y="328" type="line"/>
      <point x="89" y="359" type="line"/>
      <point x="89" y="730" type="line"/>
      <point x="154" y="730" type="line"/>
      <point x="154" y="385" type="line"/>
      <point x="210" y="408" type="line"/>
    </contour>
  </outline>
</glyph>
<glyph name="OE" format="1">
  <advance width="1161"/>
  <unicode hex="0152"/>
  <outline>
    <contour>
      <point x="1110" y="0" type="line"/>
      <point x="704" y="0" type="line"/>
      <point x="704" y="141" type="line"/>
      <point x="640" y="48"/>
      <point x="534" y="-12"/>
      <point x="412" y="-12" type="curve" smooth="yes"/>
      <point x="207" y="-12"/>
      <point x="45" y="150"/>
      <point x="45" y="366" type="curve" smooth="yes"/>
      <point x="45" y="579"/>
      <point x="204" y="742"/>
      <point x="410" y="742" type="curve" smooth="yes"/>
      <point x="535" y="742"/>
      <point x="641" y="684"/>
      <point x="704" y="592" type="curve"/>
      <point x="704" y="730" type="line"/>
      <point x="1091" y="730" type="line"/>
      <point x="1091" y="666" type="line"/>
      <point x="774" y="666" type="line"/>
      <point x="774" y="404" type="line"/>
      <point x="1070" y="404" type="line"/>
      <point x="1070" y="340" type="line"/>
      <point x="774" y="340" type="line"/>
      <point x="774" y="64" type="line"/>
      <point x="1110" y="64" type="line"/>
    </contour>
    <contour>
      <point x="705" y="367" type="curve" smooth="yes"/>
      <point x="705" y="542"/>
      <point x="581" y="675"/>
      <point x="410" y="675" type="curve" smooth="yes"/>
      <point x="242" y="675"/>
      <point x="118" y="542"/>
      <point x="118" y="366" type="curve" smooth="yes"/>
      <point x="118" y="188"/>
      <point x="250" y="55"/>
      <point x="412" y="55" type="curve" smooth="yes"/>
      <point x="574" y="55"/>
      <point x="705" y="184"/>
    </contour>
  </outline>
</glyph>
<glyph name="oe" format="1">
  <advance width="810"/>
  <unicode hex="0153"/>
  <outline>
    <contour>
      <point x="779" y="202" type="curve"/>
      <point x="451" y="202" type="line"/>
      <point x="451" y="112"/>
      <point x="505" y="47"/>
      <point x="595" y="47" type="curve" smooth="yes"/>
      <point x="656" y="47"/>
      <point x="693" y="69"/>
      <point x="731" y="103" type="curve"/>
      <point x="771" y="63" type="line"/>
      <point x="732" y="24"/>
      <point x="676" y="-12"/>
      <point x="593" y="-12" type="curve" smooth="yes"/>
      <point x="510" y="-12"/>
      <point x="449" y="30"/>
      <point x="419" y="91" type="curve"/>
      <point x="388" y="28"/>
      <point x="320" y="-12"/>
      <point x="243" y="-12" type="curve" smooth="yes"/>
      <point x="123" y="-12"/>
      <point x="34" y="76"/>
      <point x="34" y="205" type="curve" smooth="yes"/>
      <point x="34" y="325"/>
      <point x="119" y="420"/>
      <point x="242" y="420" type="curve" smooth="yes"/>
      <point x="319" y="420"/>
      <point x="386" y="382"/>
      <point x="418" y="320" type="curve"/>
      <point x="448" y="379"/>
      <point x="510" y="420"/>
      <point x="590" y="420" type="curve" smooth="yes"/>
      <point x="711" y="420"/>
      <point x="777" y="319"/>
    </contour>
    <contour>
      <point x="705" y="254" type="line"/>
      <point x="696" y="309"/>
      <point x="656" y="361"/>
      <point x="585" y="361" type="curve" smooth="yes"/>
      <point x="509" y="361"/>
      <point x="465" y="314"/>
      <point x="454" y="254" type="curve"/>
    </contour>
    <contour>
      <point x="387" y="205" type="curve" smooth="yes"/>
      <point x="387" y="297"/>
      <point x="330" y="359"/>
      <point x="242" y="359" type="curve" smooth="yes"/>
      <point x="157" y="359"/>
      <point x="101" y="293"/>
      <point x="101" y="205" type="curve" smooth="yes"/>
      <point x="101" y="113"/>
      <point x="157" y="48"/>
      <point x="242" y="48" type="curve" smooth="yes"/>
      <point x="333" y="48"/>
      <point x="387" y="115"/>
    </contour>
  </outline>
</glyph>
<glyph name="florin" format="1">
  <advance width="269"/>
  <unicode hex="0192"/>
  <outline>
    <contour>
      <point x="257" y="730" type="curve"/>
      <point x="252" y="671" type="line"/>
      <point x="252" y="671"/>
      <point x="228" y="673"/>
      <point x="222" y="672" type="curve"/>
      <point x="199" y="671"/>
      <point x="182" y="655"/>
      <point x="179" y="620" type="curve" smooth="yes"/>
      <point x="160" y="408" type="line"/>
      <point x="227" y="408" type="line"/>
      <point x="222" y="348" type="line"/>
      <point x="155" y="348" type="line"/>
      <point x="117" y="-87" type="line" smooth="yes"/>
      <point x="112" y="-150"/>
      <point x="65" y="-179"/>
      <point x="16" y="-179" type="curve" smooth="yes"/>
      <point x="8" y="-179"/>
      <point x="-16" y="-179"/>
      <point x="-25" y="-177" type="curve"/>
      <point x="-20" y="-119" type="line"/>
      <point x="-20" y="-119"/>
      <point x="4" y="-121"/>
      <point x="10" y="-120" type="curve"/>
      <point x="33" y="-119"/>
      <point x="50" y="-103"/>
      <point x="53" y="-68" type="curve" smooth="yes"/>
      <point x="89" y="348" type="line"/>
      <point x="32" y="348" type="line"/>
      <point x="37" y="408" type="line"/>
      <point x="95" y="408" type="line"/>
      <point x="115" y="640" type="line" smooth="yes"/>
      <point x="120" y="703"/>
      <point x="167" y="731"/>
      <point x="216" y="731" type="curve" smooth="yes"/>
      <point x="224" y="731"/>
      <point x="249" y="731"/>
    </contour>
  </outline>
</glyph>
<glyph name="circumflex" format="1">
  <advance width="467"/>
  <unicode hex="02C6"/>
  <outline>
    <contour>
      <point x="364" y="488" type="line"/>
      <point x="294" y="488" type="line"/>
      <point x="233" y="572" type="line"/>
      <point x="172" y="488" type="line"/>
      <point x="103" y="488" type="line"/>
      <point x="205" y="622" type="line"/>
      <point x="262" y="622" type="line"/>
    </contour>
  </outline>
</glyph>
<glyph name="caron" format="1">
  <advance width="467"/>
  <unicode hex="02C7"/>
  <outline>
    <contour>
      <point x="363" y="622" type="line"/>
      <point x="261" y="488" type="line"/>
      <point x="204" y="488" type="line"/>
      <point x="102" y="622" type="line"/>
      <point x="172" y="622" type="line"/>
      <point x="233" y="538" type="line"/>
      <point x="294" y="622" type="line"/>
    </contour>
  </outline>
</glyph>
<glyph name="breve" format="1">
  <advance width="467"/>
  <unicode hex="02D8"/>
  <outline>
    <contour>
      <point x="370" y="620" type="line"/>
      <point x="367" y="533"/>
      <point x="310" y="484"/>
      <point x="233" y="484" type="curve" smooth="yes"/>
      <point x="157" y="484"/>
      <point x="100" y="533"/>
      <point x="96" y="620" type="curve"/>
      <point x="154" y="620" type="line"/>
      <point x="155" y="574"/>
      <point x="182" y="535"/>
      <point x="233" y="535" type="curve" smooth="yes"/>
      <point x="285" y="535"/>
      <point x="312" y="574"/>
      <point x="313" y="620" type="curve"/>
    </contour>
  </outline>
</glyph>
<glyph name="dotaccent" format="1">
  <advance width="467"/>
  <unicode hex="02D9"/>
  <outline>
    <contour>
      <point x="267" y="488" type="line"/>
      <point x="200" y="488" type="line"/>
      <point x="200" y="584" type="line"/>
      <point x="267" y="584" type="line"/>
    </contour>
  </outline>
</glyph>
<glyph name="ring" format="1">
  <advance width="467"/>
  <unicode hex="02DA"/>
  <outline>
    <contour>
      <point x="337" y="585" type="curve" smooth="yes"/>
      <point x="337" y="527"/>
      <point x="291" y="481"/>
      <point x="233" y="481" type="curve" smooth="yes"/>
      <point x="176" y="481"/>
      <point x="130" y="527"/>
      <point x="130" y="585" type="curve" smooth="yes"/>
      <point x="130" y="642"/>
      <point x="176" y="688"/>
      <point x="233" y="688" type="curve" smooth="yes"/>
      <point x="291" y="688"/>
      <point x="337" y="642"/>
    </contour>
    <contour>
      <point x="292" y="585" type="curve" smooth="yes"/>
      <point x="292" y="617"/>
      <point x="266" y="643"/>
      <point x="233" y="643" type="curve" smooth="yes"/>
      <point x="201" y="643"/>
      <point x="175" y="617"/>
      <point x="175" y="585" type="curve" smooth="yes"/>
      <point x="175" y="552"/>
      <point x="201" y="526"/>
      <point x="233" y="526" type="curve" smooth="yes"/>
      <point x="266" y="526"/>
      <point x="292" y="552"/>
    </contour>
  </outline>
</glyph>
<glyph name="ogonek" format="1">
  <advance width="467"/>
  <unicode hex="02DB"/>
  <outline>
    <contour>
      <point x="320" y="-146" type="line"/>
      <point x="297" y="-167"/>
      <point x="262" y="-180"/>
      <point x="227" y="-180" type="curve" smooth="yes"/>
      <point x="172" y="-180"/>
      <point x="119" y="-152"/>
      <point x="119" y="-98" type="curve" smooth="yes"/>
      <point x="119" y="-61"/>
      <point x="151" y="-20"/>
      <point x="215" y="12" type="curve"/>
      <point x="272" y="12" type="line"/>
      <point x="205" y="-30"/>
      <point x="181" y="-65"/>
      <point x="181" y="-94" type="curve" smooth="yes"/>
      <point x="181" y="-126"/>
      <point x="202" y="-138"/>
      <point x="232" y="-138" type="curve" smooth="yes"/>
      <point x="256" y="-138"/>
      <point x="277" y="-131"/>
      <point x="298" y="-115" type="curve"/>
    </contour>
  </outline>
</glyph>
<glyph name="tilde" format="1">
  <advance width="467"/>
  <unicode hex="02DC"/>
  <outline>
    <contour>
      <point x="372" y="583" type="line"/>
      <point x="371" y="528"/>
      <point x="353" y="486"/>
      <point x="293" y="486" type="curve" smooth="yes"/>
      <point x="270" y="486"/>
      <point x="245" y="499"/>
      <point x="226" y="511" type="curve" smooth="yes"/>
      <point x="207" y="522"/>
      <point x="192" y="531"/>
      <point x="177" y="531" type="curve" smooth="yes"/>
      <point x="159" y="531"/>
      <point x="151" y="515"/>
      <point x="150" y="488" type="curve"/>
      <point x="94" y="488" type="line"/>
      <point x="96" y="543"/>
      <point x="113" y="585"/>
      <point x="174" y="585" type="curve" smooth="yes"/>
      <point x="196" y="585"/>
      <point x="221" y="572"/>
      <point x="239" y="561" type="curve" smooth="yes"/>
      <point x="258" y="550"/>
      <point x="275" y="540"/>
      <point x="290" y="540" type="curve" smooth="yes"/>
      <point x="308" y="540"/>
      <point x="316" y="555"/>
      <point x="317" y="583" type="curve"/>
    </contour>
  </outline>
</glyph>
<glyph name="hungarumlaut" format="1">
  <advance width="467"/>
  <unicode hex="02DD"/>
  <outline>
    <contour>
      <point x="371" y="626" type="line"/>
      <point x="284" y="488" type="line"/>
      <point x="217" y="488" type="line"/>
      <point x="304" y="626" type="line"/>
    </contour>
    <contour>
      <point x="241" y="626" type="line"/>
      <point x="154" y="488" type="line"/>
      <point x="87" y="488" type="line"/>
      <point x="174" y="626" type="line"/>
    </contour>
  </outline>
</glyph>
<glyph name="endash" format="1">
  <advance width="432"/>
  <unicode hex="2013"/>
  <outline>
    <contour>
      <point x="379" y="189" type="line"/>
      <point x="53" y="189" type="line"/>
      <point x="53" y="250" type="line"/>
      <point x="379" y="250" type="line"/>
    </contour>
  </outline>
</glyph>
<glyph name="emdash" format="1">
  <advance width="604"/>
  <unicode hex="2014"/>
  <outline>
    <contour>
      <point x="550" y="189" type="line"/>
      <point x="53" y="189" type="line"/>
      <point x="53" y="250" type="line"/>
      <point x="550" y="250" type="line"/>
    </contour>
  </outline>
</glyph>
<glyph name="quoteleft" format="1">
  <advance width="179"/>
  <unicode hex="2018"/>
  <unicode hex="02BB"/>
  <outline>
    <contour>
      <point x="148" y="730" type="line"/>
      <point x="131" y="703"/>
      <point x="123" y="664"/>
      <point x="123" y="624" type="curve" smooth="yes"/>
      <point x="123" y="535" type="line"/>
      <point x="51" y="535" type="line"/>
      <point x="51" y="602" type="line" smooth="yes"/>
      <point x="51" y="650"/>
      <point x="82" y="704"/>
      <point x="105" y="730" type="curve"/>
    </contour>
  </outline>
</glyph>
<glyph name="quoteright" format="1">
  <advance width="179"/>
  <unicode hex="2019"/>
  <unicode hex="02BC"/>
  <outline>
    <contour>
      <point x="129" y="663" type="line" smooth="yes"/>
      <point x="129" y="615"/>
      <point x="98" y="561"/>
      <point x="74" y="535" type="curve"/>
      <point x="32" y="535" type="line"/>
      <point x="49" y="562"/>
      <point x="57" y="601"/>
      <point x="57" y="641" type="curve" smooth="yes"/>
      <point x="57" y="730" type="line"/>
      <point x="129" y="730" type="line"/>
    </contour>
  </outline>
</glyph>
<glyph name="quotesinglbase" format="1">
  <advance width="179"/>
  <unicode hex="201A"/>
  <outline>
    <contour>
      <point x="127" y="29" type="line" smooth="yes"/>
      <point x="127" y="-20"/>
      <point x="96" y="-73"/>
      <point x="73" y="-99" type="curve"/>
      <point x="30" y="-99" type="line"/>
      <point x="47" y="-72"/>
      <point x="56" y="-34"/>
      <point x="56" y="7" type="curve" smooth="yes"/>
      <point x="56" y="96" type="line"/>
      <point x="127" y="96" type="line"/>
    </contour>
  </outline>
</glyph>
<glyph name="quotedblleft" format="1">
  <advance width="307"/>
  <unicode hex="201C"/>
  <outline>
    <contour>
      <point x="276" y="730" type="line"/>
      <point x="259" y="703"/>
      <point x="251" y="664"/>
      <point x="251" y="624" type="curve" smooth="yes"/>
      <point x="251" y="535" type="line"/>
      <point x="179" y="535" type="line"/>
      <point x="179" y="602" type="line" smooth="yes"/>
      <point x="179" y="650"/>
      <point x="210" y="704"/>
      <point x="234" y="730" type="curve"/>
    </contour>
    <contour>
      <point x="147" y="730" type="line"/>
      <point x="130" y="703"/>
      <point x="122" y="664"/>
      <point x="122" y="624" type="curve" smooth="yes"/>
      <point x="122" y="535" type="line"/>
      <point x="50" y="535" type="line"/>
      <point x="50" y="602" type="line" smooth="yes"/>
      <point x="50" y="650"/>
      <point x="81" y="704"/>
      <point x="105" y="730" type="curve"/>
    </contour>
  </outline>
</glyph>
<glyph name="quotedblright" format="1">
  <advance width="307"/>
  <unicode hex="201D"/>
  <outline>
    <contour>
      <point x="258" y="663" type="line" smooth="yes"/>
      <point x="258" y="615"/>
      <point x="227" y="561"/>
      <point x="203" y="535" type="curve"/>
      <point x="161" y="535" type="line"/>
      <point x="178" y="562"/>
      <point x="186" y="601"/>
      <point x="186" y="641" type="curve" smooth="yes"/>
      <point x="186" y="730" type="line"/>
      <point x="258" y="730" type="line"/>
    </contour>
    <contour>
      <point x="129" y="663" type="line" smooth="yes"/>
      <point x="129" y="615"/>
      <point x="98" y="561"/>
      <point x="74" y="535" type="curve"/>
      <point x="32" y="535" type="line"/>
      <point x="49" y="562"/>
      <point x="57" y="601"/>
      <point x="57" y="641" type="curve" smooth="yes"/>
      <point x="57" y="730" type="line"/>
      <point x="129" y="730" type="line"/>
    </contour>
  </outline>
</glyph>
<glyph name="quotedblbase" format="1">
  <advance width="307"/>
  <unicode hex="201E"/>
  <outline>
    <contour>
      <point x="256" y="29" type="line" smooth="yes"/>
      <point x="256" y="-20"/>
      <point x="225" y="-73"/>
      <point x="201" y="-99" type="curve"/>
      <point x="159" y="-99" type="line"/>
      <point x="176" y="-72"/>
      <point x="184" y="-34"/>
      <point x="184" y="7" type="curve" smooth="yes"/>
      <point x="184" y="96" type="line"/>
      <point x="256" y="96" type="line"/>
    </contour>
    <contour>
      <point x="127" y="29" type="line" smooth="yes"/>
      <point x="127" y="-20"/>
      <point x="96" y="-73"/>
      <point x="73" y="-99" type="curve"/>
      <point x="30" y="-99" type="line"/>
      <point x="47" y="-72"/>
      <point x="56" y="-34"/>
      <point x="56" y="7" type="curve" smooth="yes"/>
      <point x="56" y="96" type="line"/>
      <point x="127" y="96" type="line"/>
    </contour>
  </outline>
</glyph>
<glyph name="dagger" format="1">
  <advance width="531"/>
  <unicode hex="2020"/>
  <outline>
    <contour>
      <point x="509" y="393" type="line"/>
      <point x="298" y="393" type="line"/>
      <point x="298" y="-179" type="line"/>
      <point x="233" y="-179" type="line"/>
      <point x="233" y="393" type="line"/>
      <point x="22" y="393" type="line"/>
      <point x="22" y="452" type="line"/>
      <point x="233" y="452" type="line"/>
      <point x="233" y="730" type="line"/>
      <point x="298" y="730" type="line"/>
      <point x="298" y="452" type="line"/>
      <point x="509" y="452" type="line"/>
    </contour>
  </outline>
</glyph>
<glyph name="daggerdbl" format="1">
  <advance width="531"/>
  <unicode hex="2021"/>
  <outline>
    <contour>
      <point x="509" y="112" type="line"/>
      <point x="298" y="112" type="line"/>
      <point x="298" y="-179" type="line"/>
      <point x="233" y="-179" type="line"/>
      <point x="233" y="112" type="line"/>
      <point x="22" y="112" type="line"/>
      <point x="22" y="171" type="line"/>
      <point x="233" y="171" type="line"/>
      <point x="233" y="393" type="line"/>
      <point x="22" y="393" type="line"/>
      <point x="22" y="452" type="line"/>
      <point x="233" y="452" type="line"/>
      <point x="233" y="730" type="line"/>
      <point x="298" y="730" type="line"/>
      <point x="298" y="452" type="line"/>
      <point x="509" y="452" type="line"/>
      <point x="509" y="393" type="line"/>
      <point x="298" y="393" type="line"/>
      <point x="298" y="171" type="line"/>
      <point x="509" y="171" type="line"/>
    </contour>
  </outline>
</glyph>
<glyph name="ellipsis" format="1">
  <advance width="537"/>
  <unicode hex="2026"/>
  <outline>
    <contour>
      <point x="484" y="0" type="line"/>
      <point x="412" y="0" type="line"/>
      <point x="412" y="96" type="line"/>
      <point x="484" y="96" type="line"/>
    </contour>
    <contour>
      <point x="304" y="0" type="line"/>
      <point x="233" y="0" type="line"/>
      <point x="233" y="96" type="line"/>
      <point x="304" y="96" type="line"/>
    </contour>
    <contour>
      <point x="125" y="0" type="line"/>
      <point x="53" y="0" type="line"/>
      <point x="53" y="96" type="line"/>
      <point x="125" y="96" type="line"/>
    </contour>
  </outline>
</glyph>
<glyph name="perthousand" format="1">
  <advance width="1050"/>
  <unicode hex="2030"/>
  <outline>
    <contour>
      <point x="334" y="556" type="curve" smooth="yes"/>
      <point x="334" y="448"/>
      <point x="279" y="365"/>
      <point x="190" y="365" type="curve" smooth="yes"/>
      <point x="119" y="365"/>
      <point x="50" y="427"/>
      <point x="50" y="553" type="curve" smooth="yes"/>
      <point x="50" y="660"/>
      <point x="105" y="742"/>
      <point x="193" y="742" type="curve" smooth="yes"/>
      <point x="284" y="742"/>
      <point x="334" y="657"/>
    </contour>
    <contour>
      <point x="648" y="730" type="line"/>
      <point x="149" y="0" type="line"/>
      <point x="76" y="0" type="line"/>
      <point x="575" y="730" type="line"/>
    </contour>
    <contour>
      <point x="1010" y="179" type="curve" smooth="yes"/>
      <point x="1010" y="71"/>
      <point x="955" y="-12"/>
      <point x="866" y="-12" type="curve" smooth="yes"/>
      <point x="795" y="-12"/>
      <point x="726" y="50"/>
      <point x="726" y="176" type="curve" smooth="yes"/>
      <point x="726" y="283"/>
      <point x="781" y="365"/>
      <point x="869" y="365" type="curve" smooth="yes"/>
      <point x="960" y="365"/>
      <point x="1010" y="280"/>
    </contour>
    <contour>
      <point x="684" y="179" type="curve" smooth="yes"/>
      <point x="684" y="71"/>
      <point x="629" y="-12"/>
      <point x="540" y="-12" type="curve" smooth="yes"/>
      <point x="469" y="-12"/>
      <point x="400" y="50"/>
      <point x="400" y="176" type="curve" smooth="yes"/>
      <point x="400" y="283"/>
      <point x="455" y="365"/>
      <point x="543" y="365" type="curve" smooth="yes"/>
      <point x="634" y="365"/>
      <point x="684" y="280"/>
    </contour>
    <contour>
      <point x="271" y="553" type="curve" smooth="yes"/>
      <point x="271" y="621"/>
      <point x="246" y="687"/>
      <point x="193" y="687" type="curve" smooth="yes"/>
      <point x="139" y="687"/>
      <point x="112" y="625"/>
      <point x="112" y="553" type="curve" smooth="yes"/>
      <point x="112" y="482"/>
      <point x="137" y="420"/>
      <point x="190" y="420" type="curve" smooth="yes"/>
      <point x="247" y="420"/>
      <point x="271" y="483"/>
    </contour>
    <contour>
      <point x="947" y="176" type="curve" smooth="yes"/>
      <point x="947" y="244"/>
      <point x="922" y="310"/>
      <point x="869" y="310" type="curve" smooth="yes"/>
      <point x="815" y="310"/>
      <point x="788" y="248"/>
      <point x="788" y="176" type="curve" smooth="yes"/>
      <point x="788" y="105"/>
      <point x="813" y="43"/>
      <point x="866" y="43" type="curve" smooth="yes"/>
      <point x="923" y="43"/>
      <point x="947" y="106"/>
    </contour>
    <contour>
      <point x="622" y="176" type="curve" smooth="yes"/>
      <point x="622" y="244"/>
      <point x="596" y="310"/>
      <point x="543" y="310" type="curve" smooth="yes"/>
      <point x="490" y="310"/>
      <point x="463" y="248"/>
      <point x="463" y="176" type="curve" smooth="yes"/>
      <point x="463" y="105"/>
      <point x="487" y="43"/>
      <point x="540" y="43" type="curve" smooth="yes"/>
      <point x="597" y="43"/>
      <point x="622" y="106"/>
    </contour>
  </outline>
</glyph>
<glyph name="guilsinglleft" format="1">
  <advance width="208"/>
  <unicode hex="2039"/>
  <outline>
    <contour>
      <point x="172" y="56" type="line"/>
      <point x="24" y="195" type="line"/>
      <point x="24" y="229" type="line"/>
      <point x="172" y="367" type="line"/>
      <point x="172" y="296" type="line"/>
      <point x="86" y="212" type="line"/>
      <point x="172" y="128" type="line"/>
    </contour>
  </outline>
</glyph>
<glyph name="guilsinglright" format="1">
  <advance width="208"/>
  <unicode hex="203A"/>
  <outline>
    <contour>
      <point x="184" y="194" type="line"/>
      <point x="36" y="56" type="line"/>
      <point x="36" y="127" type="line"/>
      <point x="122" y="211" type="line"/>
      <point x="36" y="295" type="line"/>
      <point x="36" y="367" type="line"/>
      <point x="184" y="228" type="line"/>
    </contour>
  </outline>
</glyph>
<glyph name="fraction" format="1">
  <advance width="382"/>
  <unicode hex="2044"/>
  <outline>
    <contour>
      <point x="437" y="730" type="line"/>
      <point x="14" y="0" type="line"/>
      <point x="-55" y="0" type="line"/>
      <point x="368" y="730" type="line"/>
    </contour>
  </outline>
</glyph>
<glyph name="Euro" format="1">
  <advance width="607"/>
  <unicode hex="20AC"/>
  <outline>
    <contour>
      <point x="176" y="297" type="line"/>
      <point x="191" y="170"/>
      <point x="248" y="53"/>
      <point x="358" y="53" type="curve" smooth="yes"/>
      <point x="432" y="53"/>
      <point x="480" y="94"/>
      <point x="512" y="157" type="curve"/>
      <point x="574" y="125" type="line"/>
      <point x="529" y="37"/>
      <point x="460" y="-12"/>
      <point x="357" y="-12" type="curve" smooth="yes"/>
      <point x="213" y="-12"/>
      <point x="120" y="114"/>
      <point x="103" y="297" type="curve"/>
      <point x="20" y="297" type="line"/>
      <point x="20" y="339" type="line"/>
      <point x="100" y="339" type="line"/>
      <point x="99" y="355"/>
      <point x="99" y="368"/>
      <point x="100" y="384" type="curve"/>
      <point x="20" y="384" type="line"/>
      <point x="20" y="424" type="line"/>
      <point x="102" y="424" type="line"/>
      <point x="118" y="604"/>
      <point x="201" y="742"/>
      <point x="361" y="742" type="curve" smooth="yes"/>
      <point x="461" y="742"/>
      <point x="529" y="693"/>
      <point x="572" y="609" type="curve"/>
      <point x="511" y="577" type="line"/>
      <point x="479" y="636"/>
      <point x="434" y="677"/>
      <point x="360" y="677" type="curve" smooth="yes"/>
      <point x="244" y="677"/>
      <point x="188" y="562"/>
      <point x="175" y="424" type="curve"/>
      <point x="397" y="424" type="line"/>
      <point x="397" y="384" type="line"/>
      <point x="173" y="384" type="line"/>
      <point x="172" y="368"/>
      <point x="172" y="353"/>
      <point x="173" y="339" type="curve"/>
      <point x="397" y="339" type="line"/>
      <point x="397" y="297" type="line"/>
    </contour>
  </outline>
</glyph>
<glyph name="trademark" format="1">
  <advance width="802"/>
  <unicode hex="2122"/>
  <outline>
    <contour>
      <point x="751" y="292" type="line"/>
      <point x="703" y="292" type="line"/>
      <point x="703" y="655" type="line"/>
      <point x="558" y="442" type="line"/>
      <point x="537" y="442" type="line"/>
      <point x="391" y="652" type="line"/>
      <point x="391" y="292" type="line"/>
      <point x="343" y="292" type="line"/>
      <point x="343" y="730" type="line"/>
      <point x="390" y="730" type="line"/>
      <point x="547" y="504" type="line"/>
      <point x="702" y="730" type="line"/>
      <point x="751" y="730" type="line"/>
    </contour>
    <contour>
      <point x="273" y="686" type="line"/>
      <point x="174" y="686" type="line"/>
      <point x="174" y="292" type="line"/>
      <point x="126" y="292" type="line"/>
      <point x="126" y="686" type="line"/>
      <point x="27" y="686" type="line"/>
      <point x="27" y="730" type="line"/>
      <point x="273" y="730" type="line"/>
    </contour>
  </outline>
</glyph>
<glyph name="radical" format="1">
  <advance width="510"/>
  <unicode hex="221A"/>
  <outline>
    <contour>
      <point x="485" y="730" type="line"/>
      <point x="222" y="-16" type="line"/>
      <point x="194" y="-16" type="line"/>
      <point x="19" y="316" type="line"/>
      <point x="93" y="316" type="line"/>
      <point x="203" y="101" type="line"/>
      <point x="415" y="730" type="line"/>
    </contour>
  </outline>
</glyph>
<glyph name="apple" format="1">
  <advance width="730"/>
  <unicode hex="F8FF"/>
  <outline>
    <contour>
      <point x="425" y="670" type="line"/>
      <point x="305" y="670" type="line"/>
      <point x="305" y="730" type="line"/>
      <point x="425" y="730" type="line"/>
    </contour>
    <contour>
      <point x="730" y="305" type="line"/>
      <point x="670" y="305" type="line"/>
      <point x="670" y="425" type="line"/>
      <point x="730" y="425" type="line"/>
    </contour>
    <contour>
      <point x="425" y="305" type="line"/>
      <point x="305" y="305" type="line"/>
      <point x="305" y="425" type="line"/>
      <point x="425" y="425" type="line"/>
    </contour>
    <contour>
      <point x="60" y="305" type="line"/>
      <point x="0" y="305" type="line"/>
      <point x="0" y="425" type="line"/>
      <point x="60" y="425" type="line"/>
    </contour>
    <contour>
      <point x="425" y="0" type="line"/>
      <point x="305" y="0" type="line"/>
      <point x="305" y="60" type="line"/>
      <point x="425" y="60" type="line"/>
    </contour>
  </outline>
</glyph>
<glyph name="f_f_i" format="1">
  <advance width="653"/>
  <unicode hex="FB03"/>
  <outline>
    <contour>
      <point x="590" y="512" type="line"/>
      <point x="525" y="512" type="line"/>
      <point x="525" y="608" type="line"/>
      <point x="590" y="608" type="line"/>
    </contour>
    <contour>
      <point x="444" y="348" type="line"/>
      <point x="374" y="348" type="line"/>
      <point x="374" y="0" type="line"/>
      <point x="309" y="0" type="line"/>
      <point x="309" y="348" type="line"/>
      <point x="243" y="348" type="line"/>
      <point x="243" y="408" type="line"/>
      <point x="309" y="408" type="line"/>
      <point x="309" y="640" type="line" smooth="yes"/>
      <point x="309" y="703"/>
      <point x="353" y="731"/>
      <point x="402" y="731" type="curve" smooth="yes"/>
      <point x="410" y="731"/>
      <point x="434" y="731"/>
      <point x="443" y="730" type="curve"/>
      <point x="443" y="671" type="line"/>
      <point x="443" y="671"/>
      <point x="419" y="673"/>
      <point x="413" y="672" type="curve"/>
      <point x="390" y="671"/>
      <point x="374" y="659"/>
      <point x="374" y="620" type="curve" smooth="yes"/>
      <point x="374" y="408" type="line"/>
      <point x="444" y="408" type="line"/>
    </contour>
    <contour>
      <point x="213" y="348" type="line"/>
      <point x="143" y="348" type="line"/>
      <point x="143" y="0" type="line"/>
      <point x="78" y="0" type="line"/>
      <point x="78" y="348" type="line"/>
      <point x="12" y="348" type="line"/>
      <point x="12" y="408" type="line"/>
      <point x="78" y="408" type="line"/>
      <point x="78" y="640" type="line" smooth="yes"/>
      <point x="78" y="703"/>
      <point x="122" y="731"/>
      <point x="171" y="731" type="curve" smooth="yes"/>
      <point x="179" y="731"/>
      <point x="203" y="731"/>
      <point x="212" y="730" type="curve"/>
      <point x="212" y="671" type="line"/>
      <point x="212" y="671"/>
      <point x="188" y="673"/>
      <point x="182" y="672" type="curve"/>
      <point x="159" y="671"/>
      <point x="143" y="659"/>
      <point x="143" y="620" type="curve" smooth="yes"/>
      <point x="143" y="408" type="line"/>
      <point x="213" y="408" type="line"/>
    </contour>
    <contour>
      <point x="590" y="0" type="line"/>
      <point x="525" y="0" type="line"/>
      <point x="525" y="408" type="line"/>
      <point x="590" y="408" type="line"/>
    </contour>
  </outline>
</glyph>
<glyph name="bullet" format="1">
  <advance width="335"/>
  <outline>
    <contour>
      <point x="260" y="379" type="curve" smooth="yes"/>
      <point x="260" y="328"/>
      <point x="218" y="286"/>
      <point x="167" y="286" type="curve" smooth="yes"/>
      <point x="116" y="286"/>
      <point x="74" y="328"/>
      <point x="74" y="379" type="curve" smooth="yes"/>
      <point x="74" y="430"/>
      <point x="116" y="472"/>
      <point x="167" y="472" type="curve" smooth="yes"/>
      <point x="218" y="472"/>
      <point x="260" y="430"/>
    </contour>
  </outline>
</glyph>
<glyph name="macron" format="1">
  <advance width="467"/>
  <outline>
    <contour>
      <point x="372" y="488" type="line"/>
      <point x="94" y="488" type="line"/>
      <point x="94" y="538" type="line"/>
      <point x="372" y="538" type="line"/>
    </contour>
  </outline>
</glyph>
<glyph name="onesuperior" format="1">
  <advance width="317"/>
  <outline>
    <contour>
      <point x="142" y="335" type="line"/>
      <point x="142" y="636" type="line"/>
      <point x="129" y="621"/>
      <point x="100" y="611"/>
      <point x="73" y="608" type="curve"/>
      <point x="73" y="667" type="line"/>
      <point x="111" y="672"/>
      <point x="140" y="694"/>
      <point x="156" y="730" type="curve"/>
      <point x="201" y="730" type="line"/>
      <point x="201" y="335" type="line"/>
    </contour>
  </outline>
</glyph>
<glyph name="registered" format="1">
  <advance width="844"/>
  <outline>
    <contour>
      <point x="799" y="365" type="curve" smooth="yes"/>
      <point x="799" y="157"/>
      <point x="630" y="-12"/>
      <point x="422" y="-12" type="curve" smooth="yes"/>
      <point x="214" y="-12"/>
      <point x="45" y="157"/>
      <point x="45" y="365" type="curve" smooth="yes"/>
      <point x="45" y="573"/>
      <point x="214" y="742"/>
      <point x="422" y="742" type="curve" smooth="yes"/>
      <point x="630" y="742"/>
      <point x="799" y="573"/>
    </contour>
    <contour>
      <point x="756" y="364" type="curve" smooth="yes"/>
      <point x="756" y="548"/>
      <point x="607" y="699"/>
      <point x="422" y="699" type="curve" smooth="yes"/>
      <point x="237" y="699"/>
      <point x="88" y="548"/>
      <point x="88" y="364" type="curve" smooth="yes"/>
      <point x="88" y="180"/>
      <point x="237" y="30"/>
      <point x="422" y="30" type="curve" smooth="yes"/>
      <point x="607" y="30"/>
      <point x="756" y="180"/>
    </contour>
    <contour>
      <point x="590" y="155" type="line"/>
      <point x="525" y="155" type="line"/>
      <point x="349" y="358" type="line"/>
      <point x="349" y="155" type="line"/>
      <point x="298" y="155" type="line"/>
      <point x="298" y="593" type="line"/>
      <point x="430" y="593" type="line" smooth="yes"/>
      <point x="508" y="593"/>
      <point x="567" y="542"/>
      <point x="567" y="468" type="curve" smooth="yes"/>
      <point x="567" y="390"/>
      <point x="503" y="344"/>
      <point x="430" y="344" type="curve" smooth="yes"/>
      <point x="423" y="344" type="line"/>
    </contour>
    <contour>
      <point x="514" y="469" type="curve" smooth="yes"/>
      <point x="514" y="512"/>
      <point x="479" y="545"/>
      <point x="428" y="545" type="curve" smooth="yes"/>
      <point x="349" y="545" type="line"/>
      <point x="349" y="386" type="line"/>
      <point x="421" y="386" type="line" smooth="yes"/>
      <point x="476" y="386"/>
      <point x="514" y="416"/>
    </contour>
  </outline>
</glyph>
